<svg width="163" height="48" viewBox="0 0 163 48" fill="none" xmlns="http://www.w3.org/2000/svg">
<path fill-rule="evenodd" clip-rule="evenodd" d="M10.2247 18.296C4.57774 18.296 0 22.7516 0 28.248C0 33.7443 4.57774 38.2 10.2247 38.2H27.4022C33.049 38.2 37.6268 33.7443 37.6268 28.248C37.6268 22.7516 33.049 18.296 27.4022 18.296H10.2247ZM21.6767 20.6143C17.3851 20.6143 13.906 24.0324 13.906 28.2487C13.906 32.4651 17.3851 35.8832 21.6767 35.8832H26.5845C30.8763 35.8832 34.3553 32.4651 34.3553 28.2487C34.3553 24.0324 30.8763 20.6143 26.5845 20.6143H21.6767Z" fill="#3E3E59"/>
<path d="M51.5882 22.8871C51.0546 23.1019 50.5703 23.4268 50.1657 23.8413C49.7471 24.3195 49.413 24.8681 49.1784 25.4625C48.916 26.1578 48.7895 26.8987 48.8062 27.6435C48.7818 28.3878 48.9011 29.1299 49.1573 29.8274C49.384 30.4263 49.7132 30.9793 50.1297 31.4608C50.5387 31.8942 51.0311 32.2368 51.5762 32.4672C52.1421 32.6937 52.7448 32.8099 53.3527 32.8098C53.8979 32.8165 54.4395 32.719 54.9493 32.5222C55.3991 32.3649 55.8185 32.1289 56.1887 31.8248C56.515 31.5472 56.7876 31.21 56.993 30.8308C57.1048 30.6437 57.2052 30.4496 57.2931 30.2495C57.3506 30.1191 57.454 30.0153 57.5829 29.9587C57.7117 29.902 57.8567 29.8967 57.9893 29.9437L61.2034 31.054C61.3448 31.1022 61.4618 31.2055 61.5288 31.3414C61.5957 31.4772 61.6071 31.6346 61.5606 31.779C61.3606 32.3651 61.0926 32.9248 60.7623 33.446C60.2863 34.1896 59.6943 34.8487 59.0097 35.3975C58.2677 36.0101 57.431 36.4928 56.5338 36.826C55.5013 37.1782 54.4175 37.3488 53.3287 37.3307C52.0725 37.3425 50.8284 37.0808 49.6795 36.5629C48.5561 36.1054 47.5353 35.4207 46.6785 34.5502C45.819 33.669 45.1405 32.6217 44.6829 31.47C44.1997 30.2466 43.96 28.9377 43.9775 27.619C43.9753 26.288 44.2281 24.9695 44.7218 23.7374C45.1651 22.6006 45.8305 21.5675 46.6776 20.7009C47.5246 19.8344 48.5358 19.1524 49.6494 18.6965C50.8021 18.2203 52.0374 17.9872 53.2807 18.0113C54.3904 18.0083 55.4931 18.1891 56.5458 18.5466C57.4316 18.8904 58.2613 19.369 59.0067 19.9659C59.6847 20.512 60.2592 21.1796 60.7022 21.9358C61.0236 22.4756 61.2853 23.05 61.4825 23.6487C61.5279 23.7927 61.5155 23.9492 61.448 24.0839C61.3805 24.2186 61.2635 24.3205 61.1224 24.3674L57.8212 25.4748C57.6838 25.52 57.5346 25.51 57.4041 25.4469C57.2736 25.3838 57.1716 25.2723 57.119 25.1353C56.8759 24.5375 56.5189 23.9948 56.0687 23.5385C55.4684 22.9054 54.5502 22.5689 53.3527 22.5628C52.7498 22.557 52.1512 22.667 51.5882 22.8871Z" fill="#3E3E59"/>
<path d="M62.9528 36.2411L63.0819 10.6084C63.0822 10.5329 63.0972 10.4582 63.126 10.3886C63.1547 10.319 63.1966 10.2558 63.2492 10.2027C63.3019 10.1496 63.3643 10.1076 63.433 10.079C63.5015 10.0505 63.5749 10.036 63.6491 10.0364L67.3493 10.0548C67.4985 10.0572 67.6407 10.1191 67.7457 10.2271C67.8505 10.3352 67.9097 10.4809 67.9106 10.6329L67.8684 18.8458C67.8673 18.9503 67.8942 19.0531 67.9462 19.1432C67.9983 19.2332 68.0736 19.307 68.1639 19.3565C68.2542 19.406 68.3561 19.4293 68.4585 19.4239C68.561 19.4186 68.66 19.3847 68.7448 19.326C69.154 19.0305 69.6069 18.8033 70.0862 18.6531C70.9255 18.3441 71.8108 18.1857 72.7032 18.1851C73.7257 18.1621 74.7405 18.3711 75.6741 18.7968C76.4674 19.1375 77.173 19.66 77.7361 20.3236C78.2992 20.9872 78.7048 21.7741 78.9212 22.6234C79.1821 23.5376 79.3126 24.4853 79.3084 25.4375L79.2514 36.3299C79.2514 36.4052 79.2367 36.4799 79.2083 36.5495C79.1799 36.6191 79.1383 36.6823 79.0859 36.7354C79.0335 36.7885 78.9712 36.8306 78.9028 36.8591C78.8344 36.8878 78.7611 36.9022 78.6872 36.9018L74.9869 36.8835C74.9128 36.8831 74.8395 36.8678 74.7712 36.8385C74.7029 36.8092 74.641 36.7666 74.5888 36.7129C74.5367 36.6592 74.4955 36.5956 74.4675 36.5256C74.4395 36.4557 74.4253 36.3809 74.4257 36.3053L74.4768 26.2634C74.5111 25.3384 74.2476 24.4275 73.7264 23.6695C73.1863 22.9629 72.352 22.6264 71.1906 22.6204C70.7402 22.5928 70.2896 22.6709 69.8735 22.8486C69.4572 23.0262 69.0866 23.2986 68.7899 23.645C68.1896 24.3392 67.8514 25.2282 67.8355 26.1533L67.7844 36.2717C67.7829 36.424 67.7224 36.5695 67.6163 36.6766C67.51 36.7836 67.3666 36.8438 67.2172 36.8437L63.5141 36.8192C63.4399 36.8189 63.3666 36.8035 63.2983 36.7743C63.23 36.745 63.1681 36.7024 63.116 36.6486C63.0638 36.595 63.0226 36.5313 62.9946 36.4614C62.9667 36.3914 62.9525 36.3166 62.9528 36.2411Z" fill="#3E3E59"/>
<path d="M93.8544 18.9264C94.9627 19.3943 95.9709 20.0779 96.8224 20.9391C97.6653 21.8237 98.3264 22.8709 98.7671 24.0194C99.2349 25.2588 99.4621 26.5792 99.4363 27.9071C99.4538 29.2239 99.213 30.5311 98.7281 31.752C98.2773 32.8967 97.6046 33.937 96.7504 34.8108C95.3745 36.1245 93.6565 37.0065 91.8018 37.3515C89.9472 37.6964 88.0343 37.4898 86.2919 36.7562C85.1845 36.2868 84.1773 35.6022 83.3269 34.7404C82.4813 33.8579 81.8199 32.8101 81.3822 31.6602C80.9084 30.4351 80.6798 29.1257 80.7099 27.8092C80.6973 26.4814 80.9388 25.164 81.4212 23.9306C81.8705 22.7859 82.5422 21.7454 83.3959 20.8718C84.2546 20.0186 85.269 19.3452 86.3818 18.8897C88.7939 17.9664 91.455 17.9806 93.8574 18.9295L93.8544 18.9264ZM91.7536 32.7124C92.3065 32.4993 92.8043 32.1603 93.2092 31.7214C93.6372 31.2638 93.9735 30.7257 94.1995 30.1369C94.4762 29.4191 94.6147 28.6537 94.6076 27.8825C94.6238 27.1116 94.4923 26.3448 94.2206 25.6252C94.0011 25.0337 93.6708 24.4914 93.2482 24.0285C92.8466 23.5864 92.3521 23.2423 91.8017 23.0222C90.7093 22.5725 89.4895 22.5659 88.3925 23.0038C87.8416 23.2207 87.3446 23.5593 86.9371 23.9948C86.5083 24.4524 86.1727 24.9919 85.9498 25.5824C85.4097 27.0344 85.4012 28.6362 85.9257 30.094C86.1444 30.6845 86.4725 31.2267 86.892 31.6908C87.2954 32.1311 87.7894 32.4748 88.3385 32.6971C89.4326 33.1445 90.6528 33.1499 91.7507 32.7124H91.7536Z" fill="#3E3E59"/>
<path d="M101.411 10.6786C101.683 10.393 102.01 10.1676 102.371 10.0166C102.733 9.86553 103.121 9.79205 103.511 9.80074C103.909 9.79468 104.303 9.87131 104.671 10.0259C105.038 10.1806 105.371 10.4099 105.648 10.7C106.192 11.2915 106.487 12.0765 106.47 12.8871C106.473 13.2857 106.396 13.6807 106.245 14.0484C106.094 14.4161 105.872 14.749 105.592 15.0271C105.311 15.3053 104.979 15.523 104.614 15.6672C104.25 15.8113 103.86 15.8791 103.469 15.8663C103.078 15.8726 102.689 15.7963 102.327 15.6421C101.966 15.4878 101.639 15.259 101.369 14.9701C101.095 14.6949 100.88 14.3658 100.735 14.0029C100.591 13.6401 100.521 13.251 100.528 12.8595C100.522 12.4539 100.597 12.0511 100.748 11.6761C100.9 11.301 101.125 10.9615 101.411 10.6786ZM101.642 18.8181L105.342 18.8364C105.416 18.8368 105.489 18.8521 105.558 18.8814C105.626 18.9106 105.688 18.9533 105.74 19.007C105.792 19.0607 105.833 19.1243 105.861 19.1942C105.889 19.2642 105.904 19.339 105.903 19.4145L105.816 36.4643C105.813 36.6149 105.752 36.7581 105.646 36.863C105.539 36.9678 105.397 37.0257 105.249 37.024H101.552C101.478 37.0232 101.404 37.0074 101.336 36.9776C101.268 36.9477 101.206 36.9043 101.155 36.8499C101.103 36.7957 101.062 36.7315 101.035 36.661C101.008 36.5906 100.995 36.5154 100.997 36.4397L101.081 19.3901C101.081 19.2386 101.141 19.0936 101.246 18.9865C101.351 18.8794 101.493 18.8189 101.642 18.8181Z" fill="#3E3E59"/>
<path d="M112.332 33.0035C112.875 33.5603 113.671 33.86 114.733 33.8662C115.364 33.91 115.99 33.7282 116.503 33.3523C116.69 33.1945 116.84 32.9973 116.943 32.7743C117.047 32.5514 117.101 32.3081 117.104 32.0615C117.107 31.8618 117.07 31.6635 116.997 31.4785C116.923 31.2935 116.814 31.1256 116.674 30.9847C116.374 30.6513 115.879 30.425 115.189 30.2751L112.821 29.7124C111.081 29.2963 109.82 28.6265 109.019 27.6599C108.238 26.7035 107.82 25.4933 107.84 24.2493C107.843 23.4558 108.02 22.673 108.359 21.9582C108.683 21.2273 109.172 20.584 109.784 20.0802C110.396 19.5177 111.11 19.0814 111.885 18.7955C112.73 18.465 113.63 18.306 114.535 18.3275C115.626 18.3039 116.71 18.4982 117.728 18.8995C118.524 19.189 119.251 19.6466 119.862 20.2423C120.372 20.7373 120.78 21.3311 121.062 21.9888C121.211 22.3285 121.333 22.6793 121.428 23.038C121.446 23.1126 121.449 23.19 121.436 23.2658C121.425 23.3414 121.398 23.4139 121.358 23.479C121.318 23.5439 121.265 23.6001 121.204 23.6441C121.142 23.6882 121.072 23.7193 120.999 23.7354L118.043 24.3992C117.904 24.4306 117.759 24.4071 117.636 24.3332C117.513 24.2595 117.423 24.1409 117.383 24.0016C117.354 23.8975 117.319 23.7955 117.277 23.6956C117.16 23.3856 116.976 23.1065 116.737 22.8789C116.481 22.618 116.175 22.4149 115.837 22.2825C115.434 22.1192 115.002 22.0412 114.568 22.0531C113.994 22.0391 113.432 22.2187 112.968 22.5639C112.751 22.7014 112.572 22.8941 112.45 23.123C112.327 23.3519 112.265 23.6093 112.269 23.8701C112.257 24.0741 112.293 24.2782 112.375 24.4651C112.456 24.6519 112.58 24.8161 112.737 24.9437C113.075 25.2231 113.475 25.4152 113.902 25.5035L116.437 26.0693C118.214 26.4486 119.516 27.1582 120.384 28.1615C121.257 29.116 121.731 30.3802 121.704 31.6852C121.698 32.4343 121.547 33.1745 121.257 33.8631C120.982 34.5955 120.544 35.2523 119.976 35.781C119.346 36.3754 118.609 36.8369 117.803 37.139C115.695 37.8427 113.415 37.8017 111.333 37.0229C110.515 36.6706 109.76 36.1816 109.1 35.576C108.55 35.0601 108.119 34.4258 107.84 33.7193C107.666 33.3477 107.529 32.9593 107.431 32.5601C107.414 32.4855 107.411 32.4081 107.423 32.3323C107.436 32.2567 107.463 32.1843 107.503 32.1195C107.543 32.0548 107.596 31.9989 107.658 31.9553C107.72 31.9116 107.79 31.8812 107.864 31.8657L110.901 31.2111C111.042 31.1797 111.191 31.206 111.314 31.2842C111.437 31.3624 111.526 31.4865 111.561 31.6301C111.693 32.1497 111.96 32.6239 112.332 33.0035Z" fill="#3E3E59"/>
<path d="M138.602 34.2523C138.125 34.9504 137.533 35.5599 136.853 36.054C136.129 36.5853 135.332 37.0048 134.488 37.2989C133.511 37.6005 132.494 37.7451 131.472 37.7271C130.272 37.7205 129.082 37.5022 127.955 37.0818C126.855 36.6541 125.857 35.9931 125.026 35.1424C124.163 34.2677 123.488 33.2185 123.046 32.0622C122.527 30.7575 122.274 29.3587 122.304 27.9512C122.299 26.5962 122.551 25.253 123.048 23.9962C123.491 22.8787 124.151 21.8634 124.987 21.0109C125.8 20.1875 126.766 19.5385 127.829 19.1022C128.869 18.6376 129.994 18.404 131.13 18.417C133.924 18.417 136.064 19.2918 137.615 20.965C139.167 22.6382 139.917 24.972 139.902 27.8962C139.907 28.2291 139.894 28.5619 139.864 28.8933C139.847 29.0331 139.781 29.1619 139.677 29.255C139.574 29.3481 139.44 29.3991 139.302 29.398L127.688 29.34C127.605 29.3387 127.524 29.356 127.448 29.3907C127.374 29.4254 127.306 29.4765 127.253 29.5405C127.199 29.6045 127.161 29.6797 127.138 29.7608C127.116 29.8419 127.113 29.9269 127.127 30.0098C127.186 30.3544 127.293 30.6888 127.442 31.004C127.692 31.4889 128.021 31.9274 128.414 32.3009C128.822 32.6813 129.294 32.9839 129.807 33.194L129.864 33.2155C130.402 33.4106 130.967 33.5139 131.538 33.5213C132.664 33.5213 133.573 33.2735 134.192 32.7566C134.715 32.3519 135.14 31.8282 135.431 31.2273C135.487 31.1031 135.586 31.004 135.708 30.9477C135.83 30.8915 135.969 30.8822 136.097 30.9213L139.098 31.839C139.171 31.861 139.24 31.8981 139.298 31.9481C139.357 31.998 139.405 32.0597 139.44 32.1294C139.475 32.199 139.495 32.2751 139.499 32.3529C139.504 32.4309 139.494 32.5089 139.467 32.5823C139.25 33.1746 138.961 33.7359 138.602 34.2523ZM134.878 24.7242C134.732 24.2853 134.485 23.888 134.158 23.565C133.813 23.2015 133.392 22.9214 132.928 22.7452C132.379 22.5033 131.785 22.3864 131.187 22.4026C130.61 22.3893 130.037 22.5031 129.507 22.736C129.049 22.9433 128.63 23.2289 128.267 23.5802C127.947 23.9128 127.688 24.3 127.499 24.7242C127.421 24.8974 127.355 25.0763 127.304 25.2595C127.282 25.3445 127.278 25.4336 127.294 25.52C127.312 25.6063 127.348 25.6877 127.4 25.7575C127.453 25.8273 127.52 25.8839 127.598 25.9227C127.675 25.9616 127.761 25.9816 127.847 25.9814L134.5 26.018C134.586 26.018 134.67 25.9984 134.747 25.9604C134.824 25.9226 134.891 25.8675 134.945 25.7993C134.998 25.731 135.035 25.6514 135.054 25.5664C135.073 25.4815 135.071 25.3933 135.053 25.3084C135.013 25.1084 134.955 24.9126 134.878 24.7242Z" fill="#3E3E59"/>
<path d="M145.319 19.9395C145.157 20.0066 145.01 20.1081 144.887 20.2376C144.759 20.3869 144.658 20.5581 144.587 20.7438C144.507 20.9609 144.468 21.1923 144.474 21.4248C144.466 21.6573 144.502 21.889 144.58 22.1068C144.649 22.2949 144.749 22.4685 144.876 22.6198C145 22.7554 145.149 22.8624 145.316 22.934C145.488 23.0051 145.67 23.0414 145.856 23.0409C146.021 23.0436 146.186 23.0131 146.341 22.9512C146.477 22.9022 146.605 22.8286 146.717 22.7334C146.816 22.6467 146.899 22.5415 146.961 22.423C146.995 22.3646 147.026 22.304 147.052 22.2415C147.07 22.2009 147.102 22.1686 147.14 22.1509C147.18 22.1334 147.224 22.1315 147.264 22.1459L148.24 22.4927C148.282 22.5083 148.317 22.5402 148.337 22.5817C148.356 22.6232 148.36 22.671 148.346 22.7152C148.285 22.8984 148.204 23.0732 148.104 23.2359C147.96 23.468 147.779 23.6739 147.571 23.8452C147.345 24.0365 147.091 24.1875 146.819 24.2923C146.506 24.4007 146.178 24.4534 145.847 24.448C145.467 24.4527 145.089 24.3716 144.74 24.2101C144.397 24.0672 144.088 23.8534 143.827 23.5816C143.565 23.3066 143.359 22.9795 143.221 22.6198C143.074 22.2377 143.001 21.8289 143.007 21.4172C143.006 21.0016 143.082 20.5898 143.233 20.2051C143.368 19.8501 143.57 19.5275 143.827 19.2569C144.084 18.9863 144.392 18.7733 144.73 18.631C145.081 18.4823 145.455 18.4095 145.833 18.417C146.171 18.4161 146.506 18.4725 146.825 18.5842C147.095 18.6919 147.346 18.8413 147.573 19.0274C147.779 19.1979 147.954 19.4064 148.089 19.6425C148.185 19.8112 148.266 19.9906 148.326 20.1774C148.339 20.2225 148.335 20.2712 148.314 20.3132C148.295 20.3551 148.259 20.387 148.216 20.4018L147.212 20.7476C147.171 20.7617 147.126 20.7586 147.086 20.7389C147.046 20.7192 147.016 20.6844 146.999 20.6416C146.926 20.4549 146.817 20.2855 146.681 20.143C146.498 19.9453 146.219 19.8402 145.856 19.8383C145.672 19.8365 145.49 19.8708 145.319 19.9395Z" fill="#3E3E59"/>
<path d="M152.449 18.6709C152.785 18.8174 153.091 19.0308 153.35 19.2994C153.607 19.5753 153.807 19.9024 153.941 20.2613C154.083 20.6474 154.153 21.0587 154.145 21.4725C154.149 21.8836 154.076 22.2919 153.929 22.6731C153.792 23.0305 153.588 23.3554 153.329 23.6283C153.068 23.8943 152.76 24.1046 152.422 24.2472C152.063 24.405 151.675 24.4818 151.285 24.4726C150.896 24.48 150.508 24.4015 150.15 24.2425C149.813 24.096 149.507 23.8825 149.249 23.6139C148.992 23.3366 148.792 23.0078 148.66 22.6473C148.516 22.2646 148.447 21.8558 148.456 21.4448C148.452 21.0294 148.524 20.617 148.669 20.2307C148.807 19.8735 149.01 19.5488 149.27 19.2756C149.533 19.0096 149.842 18.7995 150.181 18.6566C150.915 18.3686 151.724 18.373 152.454 18.669L152.449 18.6709ZM151.811 22.9768C151.979 22.9093 152.13 22.8033 152.254 22.6665C152.384 22.5233 152.485 22.3553 152.554 22.1716C152.638 21.949 152.68 21.7116 152.678 21.4725C152.682 21.2317 152.642 20.9923 152.56 20.7675C152.493 20.5829 152.393 20.4135 152.265 20.2689C152.143 20.131 151.992 20.0237 151.824 19.9547C151.494 19.8124 151.122 19.8087 150.788 19.9442C150.621 20.0117 150.47 20.1174 150.346 20.2536C150.216 20.3969 150.114 20.5653 150.046 20.7494C149.961 20.9735 149.919 21.2125 149.92 21.4533C149.917 21.6941 149.956 21.9333 150.038 22.1583C150.105 22.3428 150.205 22.512 150.333 22.6569C150.457 22.7945 150.607 22.9018 150.773 22.9711C150.939 23.0406 151.114 23.0769 151.291 23.0781C151.469 23.0784 151.645 23.0441 151.81 22.9768H151.811Z" fill="#3E3E59"/>
<path d="M154.815 18.6396L155.873 18.6453C155.896 18.6452 155.918 18.6498 155.939 18.6588C155.96 18.6678 155.98 18.6811 155.995 18.6979C156.011 18.7147 156.024 18.7346 156.032 18.7566C156.041 18.7786 156.046 18.8021 156.045 18.8258V18.8392C156.046 18.8733 156.055 18.9067 156.073 18.9354C156.09 18.9641 156.116 18.9868 156.145 19.001C156.175 19.0152 156.208 19.0202 156.24 19.0153C156.272 19.0105 156.302 18.9961 156.328 18.9739C156.45 18.867 156.584 18.7765 156.728 18.7045C156.872 18.6324 157.026 18.5789 157.183 18.545C157.333 18.5105 157.486 18.492 157.639 18.4896C157.981 18.4826 158.319 18.5681 158.619 18.738C158.819 18.8546 158.99 19.0181 159.119 19.2155C159.133 19.2387 159.153 19.258 159.176 19.2718C159.2 19.2855 159.227 19.2934 159.252 19.2948C159.279 19.2962 159.306 19.2911 159.33 19.2798C159.355 19.2685 159.375 19.2514 159.393 19.2299C159.554 19.0132 159.761 18.8392 159.998 18.7217C160.299 18.5744 160.63 18.5031 160.963 18.5135C161.212 18.5152 161.457 18.5594 161.692 18.6443C161.924 18.7258 162.137 18.8558 162.318 19.0264C162.513 19.2163 162.663 19.4502 162.756 19.7103C162.874 20.0191 162.928 20.3498 162.918 20.6817L162.9 24.1872C162.9 24.2348 162.882 24.2802 162.849 24.3136C162.817 24.3471 162.774 24.3658 162.728 24.3658L161.648 24.3601C161.626 24.36 161.604 24.3552 161.583 24.346C161.562 24.337 161.543 24.3236 161.527 24.3068C161.512 24.2901 161.499 24.2702 161.491 24.2484C161.482 24.2265 161.478 24.2031 161.478 24.1795L161.493 20.9855C161.505 20.7125 161.428 20.4436 161.277 20.2213C161.123 20.0121 160.881 19.9071 160.539 19.9052C160.4 19.8974 160.26 19.9232 160.132 19.9806C160.004 20.0381 159.89 20.1257 159.799 20.2366C159.62 20.4544 159.524 20.7337 159.53 21.0208L159.515 24.1729C159.515 24.1965 159.51 24.2198 159.501 24.2415C159.493 24.2633 159.48 24.283 159.464 24.2996C159.448 24.3161 159.429 24.3293 159.408 24.3381C159.387 24.3471 159.365 24.3516 159.343 24.3515L158.227 24.34C158.183 24.3398 158.138 24.3208 158.107 24.287C158.074 24.2534 158.057 24.2079 158.057 24.1604L158.073 20.9664C158.084 20.6882 158.003 20.4146 157.845 20.1908C157.693 19.994 157.45 19.8889 157.116 19.887C156.783 19.8851 156.542 19.9883 156.365 20.2061C156.186 20.4282 156.09 20.7111 156.096 21.0017L156.081 24.1538C156.081 24.1773 156.076 24.2007 156.067 24.2224C156.059 24.2441 156.046 24.2639 156.03 24.2804C156.015 24.297 155.995 24.3102 155.974 24.319C155.953 24.328 155.931 24.3325 155.909 24.3324L154.785 24.3266C154.761 24.3265 154.739 24.3217 154.718 24.3126C154.699 24.3034 154.679 24.2902 154.664 24.2734C154.647 24.2567 154.636 24.2368 154.626 24.2149C154.618 24.1931 154.614 24.1697 154.614 24.1461L154.64 18.822C154.64 18.7978 154.644 18.7738 154.653 18.7514C154.661 18.7289 154.674 18.7086 154.69 18.6915C154.707 18.6744 154.726 18.661 154.747 18.6521C154.77 18.6432 154.793 18.6389 154.815 18.6396Z" fill="#3E3E59"/>
</svg>
