<svg width="198" height="48" viewBox="0 0 198 48" fill="none" xmlns="http://www.w3.org/2000/svg">
<path fill-rule="evenodd" clip-rule="evenodd" d="M51.337 32.7363C46.9876 32.7363 43.7734 29.3293 43.7734 25.1446C43.7734 20.9598 46.9876 17.4693 51.364 17.4693C54.1358 17.4693 55.8534 18.4951 57.2111 19.9916L55.1334 22.2351C54.1076 21.1551 53.0276 20.4069 51.337 20.4069C48.8981 20.4069 47.1252 22.5128 47.1252 25.0893C47.1252 27.721 48.9264 29.8269 51.5028 29.8269C53.0828 29.8269 54.2464 29.0787 55.2993 27.9987L57.3217 29.9928C55.8817 31.5998 54.1911 32.7363 51.337 32.7363Z" fill="#3E3E59"/>
<path fill-rule="evenodd" clip-rule="evenodd" d="M63.6838 32.7362H60.332V17.4973H63.6838V21.0715C64.5979 18.882 66.2885 17.3856 68.865 17.4973V21.0444H68.6709C65.7344 21.0444 63.6838 22.9562 63.6838 26.835V32.7362Z" fill="#3E3E59"/>
<path fill-rule="evenodd" clip-rule="evenodd" d="M86.4142 17.4693L79.006 36.8387H75.6071L77.226 32.741L70.8789 17.4693H74.453L78.7836 28.7493L82.9413 17.4693H86.4142Z" fill="#3E3E59"/>
<path fill-rule="evenodd" clip-rule="evenodd" d="M96.306 20.3787C94.0342 20.3787 92.0389 22.2351 92.0389 25.0893C92.0389 27.9434 94.0342 29.7987 96.306 29.7987C98.606 29.7987 100.49 27.9987 100.49 25.0893C100.49 22.2069 98.5778 20.3787 96.306 20.3787ZM97.0813 32.7081C94.6719 32.7081 93.1472 31.4893 92.1213 30.1316V36.8375H88.7695V17.4693H92.1213V20.2116C93.2025 18.6881 94.7272 17.4693 97.0813 17.4693C100.545 17.4693 103.898 20.2116 103.898 25.0893C103.898 29.9657 100.573 32.7081 97.0813 32.7081Z" fill="#3E3E59"/>
<path fill-rule="evenodd" clip-rule="evenodd" d="M111.246 20.6562V27.8303C111.246 29.1315 111.907 29.6574 113.046 29.6574H114.361V32.6515H112.068C109.628 32.6444 107.894 31.5597 107.894 28.3562V20.6562H106.033V17.7774H107.894V13.7586H111.246V17.7774H114.361V20.6562H111.246Z" fill="#3E3E59"/>
<path fill-rule="evenodd" clip-rule="evenodd" d="M124.966 20.4064C122.278 20.4064 120.56 22.5123 120.56 25.0888C120.56 27.6935 122.416 29.8264 125.021 29.8264C127.735 29.8264 129.454 27.7217 129.454 25.1441C129.454 22.5394 127.598 20.4064 124.966 20.4064ZM124.966 32.7358C120.505 32.7358 117.207 29.3288 117.207 25.1441C117.207 20.9323 120.532 17.4688 125.021 17.4688C129.509 17.4688 132.807 20.877 132.807 25.0888C132.807 29.2735 129.481 32.7358 124.966 32.7358Z" fill="#3E3E59"/>
<path fill-rule="evenodd" clip-rule="evenodd" d="M138.943 29.6612V31.3506C138.943 31.4224 138.907 31.4871 138.845 31.52L137.383 32.3647C137.321 32.4 137.246 32.4 137.189 32.3647L135.723 31.52C135.664 31.4871 135.625 31.4224 135.625 31.3506V29.6612C135.625 29.593 135.664 29.5283 135.723 29.4918L137.189 28.6471C137.246 28.6118 137.321 28.6118 137.383 28.6471L138.845 29.4918C138.907 29.5283 138.943 29.593 138.943 29.6612Z" fill="#3E3E59"/>
<path fill-rule="evenodd" clip-rule="evenodd" d="M164.858 20.4064C162.17 20.4064 160.453 22.5123 160.453 25.0888C160.453 27.6935 162.309 29.8264 164.914 29.8264C167.628 29.8264 169.345 27.7217 169.345 25.1441C169.345 22.5394 167.49 20.4064 164.858 20.4064ZM164.858 32.7358C160.397 32.7358 157.1 29.3288 157.1 25.1441C157.1 20.9323 160.424 17.4688 164.914 17.4688C169.402 17.4688 172.7 20.877 172.7 25.0888C172.7 29.2735 169.374 32.7358 164.858 32.7358Z" fill="#3E3E59"/>
<path fill-rule="evenodd" clip-rule="evenodd" d="M149.15 32.7191C144.801 32.6356 141.653 29.1662 141.734 24.9827C141.814 20.8003 145.094 17.3721 149.47 17.4556C152.241 17.5086 153.939 18.5662 155.268 20.0886L153.147 22.2921C152.143 21.1921 151.077 20.4239 149.387 20.3909C146.949 20.3439 145.135 22.4156 145.086 24.9921C145.035 27.6239 146.796 29.7639 149.372 29.8133C150.952 29.8439 152.129 29.118 153.202 28.058L155.187 30.0909C153.716 31.6697 152.005 32.7733 149.15 32.7191Z" fill="#3E3E59"/>
<path fill-rule="evenodd" clip-rule="evenodd" d="M192.627 17.4693C195.814 17.4693 197.753 19.4916 197.753 23.0657V32.7363H194.402V24.0916C194.402 21.7646 193.32 20.5175 191.437 20.5175C189.609 20.5175 188.305 21.7916 188.305 24.1469V32.7363H184.953V24.0634C184.953 21.7916 183.844 20.5175 181.987 20.5175C180.132 20.5175 178.857 21.9034 178.857 24.1751V32.7363H175.504V17.4693H178.857V19.9916C179.799 18.6893 181.074 17.4693 183.318 17.4693C185.424 17.4693 186.892 18.4951 187.667 20.0457C188.86 18.4951 190.411 17.4693 192.627 17.4693Z" fill="#3E3E59"/>
<path fill-rule="evenodd" clip-rule="evenodd" d="M0 14.4762V33.5229L16.4106 43.0476L32.8176 33.5229V14.4762L16.4106 4.95239L0 14.4762ZM1.44442 32.6878V15.3149L16.4106 6.62428L31.3777 15.3149V32.6878L16.4106 41.3748L1.44442 32.6878Z" fill="#3E3E59"/>
<path fill-rule="evenodd" clip-rule="evenodd" d="M22.8405 13.1753H9.94599L8.45117 19.7842H24.3947L22.8405 13.1753Z" fill="#3E3E59"/>
<path fill-rule="evenodd" clip-rule="evenodd" d="M12.2336 28.8792V24.4878L8.41426 22.0469L4.0918 25.2767L9.98377 35.5767H12.3371L15.1207 32.9721V31.663L12.2336 28.8792Z" fill="#3E3E59"/>
<path fill-rule="evenodd" clip-rule="evenodd" d="M20.5978 20.7815H12.248L13.6547 24.4736L13.2263 28.6108H16.4085L19.6213 28.5963L19.2209 24.4736L20.5978 20.7815Z" fill="#3E3E59"/>
<path fill-rule="evenodd" clip-rule="evenodd" d="M24.4173 22.0169L20.642 24.4876V28.879L17.7559 31.6628V32.9719L20.5385 35.5476H22.8622L28.7254 25.2765L24.4173 22.0169Z" fill="#3E3E59"/>
</svg>
