<svg width="104" height="48" viewBox="0 0 104 48" fill="none" xmlns="http://www.w3.org/2000/svg">
<path fill-rule="evenodd" clip-rule="evenodd" d="M70.9343 12.5H75.0172V35.3068H70.9343V12.5ZM104 22.1086V18.5694H99.7779V13.9551H95.695V30.7777C95.695 32.3234 96.0834 33.5014 96.8494 34.279C97.6147 35.0573 98.8079 35.4518 100.395 35.4518H104V31.9126H101.362C100.789 31.9126 100.377 31.7864 100.139 31.537C99.92 31.3088 99.7779 30.7324 99.7779 30.0686V22.1086H104ZM43.199 30.8677L47.4208 18.5689H51.7103L45.6159 35.307H40.7823L34.6878 18.5689H38.9773L43.199 30.8677ZM89.0398 26.954C89.0398 28.0136 88.879 28.9355 88.5631 29.6939C88.2494 30.4483 87.7999 31.0266 87.227 31.4123C86.6541 31.7981 85.9498 31.9937 85.1335 31.9937C83.9662 31.9937 83.0853 31.6096 82.516 30.8525C81.9402 30.0873 81.648 28.9276 81.648 27.4058V18.5694H77.5651V27.8576C77.5651 29.3039 77.7453 30.5306 78.1021 31.5032C78.4589 32.4787 78.9493 33.2723 79.5588 33.8614C80.1683 34.4498 80.8798 34.8748 81.6738 35.125C82.4636 35.3739 83.3136 35.5 84.1995 35.5C85.476 35.5 86.5328 35.2682 87.339 34.811C88.0742 34.3928 88.6909 33.9038 89.1733 33.3555L89.5388 35.3067H93.1227V18.5694H89.0398V26.954ZM64.6926 19.4521C63.4059 18.7378 61.8779 18.376 60.1518 18.376C58.4468 18.376 56.9245 18.7378 55.6271 19.4518C54.3282 20.1677 53.3076 21.1786 52.5936 22.4565C51.8806 23.7332 51.5191 25.2465 51.5191 26.954C51.5191 28.6406 51.8806 30.1433 52.5936 31.42C53.3072 32.6974 54.328 33.7082 55.6271 34.4239C56.9245 35.138 58.4469 35.4998 60.1518 35.4998C61.8779 35.4998 63.4058 35.138 64.6926 34.4237C65.9808 33.7083 66.9959 32.6977 67.7098 31.42C68.423 30.1426 68.7846 28.6399 68.7846 26.954C68.7846 25.2471 68.423 23.7338 67.7098 22.4564C66.9955 21.1784 65.9805 20.1674 64.6926 19.4521ZM62.5355 31.4114C61.8777 31.8402 61.0758 32.0578 60.152 32.0578C59.2494 32.0578 58.4527 31.8403 57.7839 31.4112C57.1139 30.9817 56.5885 30.3755 56.2219 29.6092C55.8537 28.8421 55.6668 27.949 55.6668 26.954C55.6668 25.9385 55.8535 25.0402 56.2219 24.2835C56.5883 23.5276 57.1141 22.9212 57.7847 22.4809C58.4533 22.041 59.2499 21.818 60.152 21.818C61.0753 21.818 61.8768 22.041 62.5348 22.4803C63.1946 22.9209 63.7153 23.5276 64.0825 24.2838C64.4505 25.0422 64.6371 25.9406 64.6371 26.9541C64.6371 27.9467 64.4505 28.8402 64.0825 29.6092C63.7153 30.3757 63.1949 30.9819 62.5355 31.4114ZM4.24336 18.1286H0V35.307H4.24336V18.1286ZM17.5504 19.111C17.5504 15.4658 14.5855 12.5002 10.9409 12.5002H0V16.1688H10.4207C12.07 16.1688 13.4363 17.4661 13.4665 19.0604C13.4816 19.8588 13.1823 20.6122 12.6238 21.182C12.0651 21.7519 11.3186 22.066 10.5218 22.066H6.46242C6.3183 22.066 6.201 22.1832 6.201 22.3275V25.588C6.201 25.6435 6.2181 25.6965 6.25029 25.7411L13.1377 35.3071H18.1793L11.2759 25.7149C14.7525 25.5402 17.5504 22.6158 17.5504 19.111ZM30.5984 19.3547C29.376 18.7051 27.9247 18.376 26.2846 18.376C24.6424 18.376 23.1741 18.7381 21.9205 19.4525C20.6647 20.1677 19.6769 21.1788 18.9844 22.4573C18.2926 23.733 17.9419 25.2568 17.9419 26.9867C17.9419 28.6727 18.2979 30.1749 19.0006 31.4518C19.7047 32.7317 20.7204 33.7372 22.0188 34.4403C23.3148 35.1436 24.8694 35.5 26.639 35.5C28.0428 35.5 29.3035 35.2367 30.386 34.717C31.4687 34.196 32.3526 33.4865 33.0133 32.6081C33.641 31.7733 34.0644 30.8291 34.2715 29.802L34.2938 29.6924H30.2333L30.2141 29.7582C29.9906 30.5243 29.5568 31.1296 28.9245 31.5578C28.2457 32.0182 27.4121 32.2517 26.4462 32.2517C25.6276 32.2517 24.8883 32.0761 24.249 31.7298C23.6128 31.3855 23.1153 30.8932 22.7708 30.2659C22.4249 29.6365 22.228 28.8792 22.186 28.0195V27.8851H34.4512L34.4649 27.8101C34.5077 27.5745 34.5352 27.3317 34.5471 27.0875C34.5573 26.8496 34.5631 26.612 34.5631 26.3722C34.5412 24.7504 34.1792 23.324 33.4872 22.132C32.7924 20.9387 31.8205 20.0042 30.5984 19.3547ZM29.1105 22.5067C29.8082 23.0945 30.2421 23.9298 30.4013 24.991H22.327C22.4192 24.3024 22.6476 23.7061 23.0063 23.2169C23.3827 22.7038 23.8648 22.3007 24.4395 22.0186C25.0148 21.7357 25.6465 21.5921 26.3167 21.5921C27.4497 21.592 28.3897 21.8998 29.1105 22.5067Z" fill="#3E3E59"/>
</svg>
