<svg width="182" height="48" viewBox="0 0 182 48" fill="none" xmlns="http://www.w3.org/2000/svg">
<path d="M7.9 37.2C10 38.4 12.5 39 15.1 39C17.7 39 20.1 38.3 22.3 37.2L15.1 26.5L7.9 37.2ZM15.1 9C6.7 9 0 15.7 0 24C0 28.9 2.2 33.1 5.8 35.9L13.8 24H5.9V21.5H13.9V19H5.9V16.5H24.3V19H16.3V21.5H24.3V24H16.3L24.3 35.9C27.9 33.1 30.1 28.9 30.1 24C30.1 15.7 23.3 9 15.1 9ZM45.9 22.7L44.1 22.6C42.1 22.5 41.2 21.4 41.2 20.1C41.2 18.5 42.4 17.1 44.8 17.1C47.3 17.1 48.4 18.6 48.4 20.2H51.7C51.7 16.5 48.9 14.1 44.7 14.1C40.6 14.1 37.8 16.4 37.8 20C37.8 23.2 40 25.2 43.7 25.5L45.5 25.6C48 25.8 49.2 26.7 49.2 28.1C49.2 29.8 47.8 31.2 44.9 31.2C41.6 31.2 40.5 29.5 40.5 27.9H37.2C37.2 31.5 40 34.1 45 34.1C49.6 34.1 52.7 31.6 52.7 28C52.7 24.9 50 23.1 45.9 22.7ZM75.9 23.9V24.5C75.9 28.8 72.7 34.4 65.8 34.4C58.8 34.4 55.7 28.8 55.7 24.5V23.9C55.7 19.3 59 14.1 65.8 14.1C72.5 14.1 75.9 19.3 75.9 23.9ZM72.4 24.2C72.4 20.3 69.9 17.2 65.8 17.2C61.7 17.2 59.1 20.2 59.1 24.2C59.1 27.9 61.6 31.2 65.8 31.2C69.9 31.2 72.4 28 72.4 24.2ZM90.9 26.8L96.1 33.9H92.3L87.6 27.4H83.9V33.9H80.5V14.6H87.3C91.8 14.6 94.6 16.6 94.6 20.8V21.2C94.6 24.1 93.3 26 90.9 26.8ZM91.4 21C91.4 18.9 90 17.5 87.8 17.5H84V24.5H87.9C90.1 24.5 91.4 23.1 91.4 21ZM110.1 14.7L116.9 33.8H113.4L111.6 28.5H103L101.2 33.8H97.8L104.5 14.7H110.1ZM110.7 25.7L107.9 17.6H107L104.2 25.7H110.7Z" fill="#3E3E59"/>
<path d="M139.8 26.9H141.7C141.5 28.1 141.1 29.3 140.4 30.3C139.7 31.3 138.8 32.1 137.6 32.7C136.4 33.3 135.1 33.6 133.4 33.6C131.8 33.6 130.4 33.3 129.2 32.7C128 32.1 127.1 31.4 126.4 30.4C125.7 29.5 125.1 28.5 124.8 27.4C124.5 26.3 124.3 25.2 124.3 24.2V23.7C124.3 22.6 124.5 21.5 124.8 20.4C125.1 19.3 125.7 18.3 126.4 17.4C127.1 16.5 128.1 15.8 129.2 15.2C130.3 14.7 131.7 14.4 133.2 14.4C134.8 14.4 136.1 14.7 137.3 15.2C138.4 15.7 139.4 16.5 140 17.5C140.7 18.5 141.1 19.7 141.2 21H139.3C139.2 19.9 138.8 19 138.3 18.3C137.7 17.6 137 17 136.1 16.7C135.2 16.3 134.3 16.2 133.2 16.2C132.1 16.2 131 16.4 130.2 16.8C129.3 17.2 128.6 17.8 128 18.5C127.4 19.2 127 20.1 126.7 21C126.4 21.9 126.3 22.9 126.3 24C126.3 25 126.4 26 126.7 26.9C127 27.8 127.4 28.7 128 29.4C128.6 30.1 129.3 30.7 130.2 31.1C131.1 31.5 132.1 31.7 133.3 31.7C135 31.7 136.4 31.3 137.5 30.4C138.8 29.7 139.5 28.5 139.8 26.9ZM154.5 21.8C154.9 22.5 155.1 23.4 155.1 24.6V33.1H153.6V30.4C153.5 30.8 153.3 31.1 153.1 31.5C152.7 32.2 152.2 32.7 151.5 33C150.8 33.3 150 33.5 149.1 33.5C148.2 33.5 147.3 33.3 146.6 33C145.9 32.7 145.3 32.2 144.9 31.6C144.5 31 144.3 30.2 144.3 29.3C144.3 28.4 144.5 27.7 144.9 27.1C145.3 26.5 145.9 26 146.7 25.7C147.5 25.4 148.4 25.2 149.5 25.2H153.2V24.6C153.2 23.6 152.9 22.9 152.4 22.3C151.9 21.8 151.1 21.5 150 21.5C149.5 21.5 149 21.5 148.5 21.5C148 21.5 147.5 21.5 147.1 21.6C146.6 21.6 146.2 21.7 145.9 21.7V20.1C146.3 20.1 146.6 20 147 20C147.4 20 147.8 19.9 148.2 19.9C148.6 19.9 149 19.9 149.4 19.9C150.7 19.9 151.8 20.1 152.7 20.4C153.6 20.6 154.2 21.1 154.5 21.8ZM153.3 28.3V26.6H149.5C148.5 26.6 147.6 26.9 147.1 27.4C146.5 27.9 146.3 28.6 146.3 29.4C146.3 30.2 146.6 30.9 147.2 31.4C147.8 31.9 148.6 32.1 149.6 32.1C150.2 32.1 150.8 32 151.4 31.8C152 31.6 152.4 31.2 152.8 30.7C153.1 30 153.3 29.2 153.3 28.3ZM162.4 21.2C161.8 21.8 161.5 22.7 161.3 23.8V20H159.8V33.2H161.7V25.9C161.7 24.5 162.1 23.4 162.8 22.6C163.5 21.9 164.6 21.5 166.1 21.5H166.9V19.8H166.5C164.6 19.8 163.3 20.2 162.4 21.2ZM182 14.9V33.1H180.5V30C180.4 30.2 180.4 30.5 180.2 30.7C179.7 31.6 179 32.3 178.1 32.8C177.2 33.3 176.2 33.5 175.2 33.5C174.2 33.5 173.4 33.3 172.6 33C171.8 32.6 171.1 32.1 170.6 31.5C170 30.9 169.6 30.1 169.3 29.3C169 28.5 168.8 27.6 168.8 26.7V26.4C168.8 25.5 169 24.6 169.2 23.8C169.4 23 169.9 22.2 170.5 21.6C171.1 21 171.7 20.5 172.5 20.1C173.3 19.7 174.2 19.5 175.2 19.5C176.3 19.5 177.3 19.7 178.1 20.2C178.9 20.7 179.6 21.4 180.1 22.3V14.9H182ZM180.2 25.8C180.2 24.9 180 24 179.6 23.3C179.2 22.6 178.6 22 177.9 21.6C177.2 21.2 176.4 21 175.4 21C174.4 21 173.6 21.2 172.8 21.7C172.1 22.2 171.5 22.8 171.1 23.6C170.7 24.4 170.5 25.3 170.5 26.3C170.5 27.3 170.7 28.3 171.1 29.1C171.5 29.9 172.1 30.6 172.8 31C173.5 31.5 174.4 31.7 175.3 31.7C176.2 31.7 177 31.5 177.7 31.1C178.4 30.7 179 30.1 179.4 29.4C179.8 28.7 180 27.8 180 26.8V25.8H180.2Z" fill="#3E3E59"/>
</svg>
