<svg viewBox="0 0 20 20" fill="none"
  xmlns="http://www.w3.org/2000/svg">
  <path d="M13.8145 14.543H6.81445C6.29492 14.543 5.79818 14.4473 5.32422 14.2559C4.85938 14.0553 4.45378 13.7819 4.10742 13.4355C3.77018 13.0801 3.5013 12.6745 3.30078 12.2188C3.10026 11.7539 3 11.2572 3 10.7285C3 10.2363 3.08659 9.77604 3.25977 9.34766C3.42383 8.91016 3.65625 8.52734 3.95703 8.19922C4.25781 7.86198 4.60417 7.57943 4.99609 7.35156C5.40625 7.13281 5.84375 6.99609 6.30859 6.94141C6.72786 6.33984 7.26107 5.86589 7.9082 5.51953C8.55534 5.17318 9.2526 5 10 5C10.5104 5 10.9935 5.07747 11.4492 5.23242C11.9049 5.39648 12.3197 5.61979 12.6934 5.90234C13.0671 6.1849 13.3952 6.52214 13.6777 6.91406C13.9421 7.30599 14.1426 7.73893 14.2793 8.21289C15.0449 8.32227 15.6875 8.67318 16.207 9.26562C16.7357 9.85807 17 10.5599 17 11.3711C17 11.8086 16.9225 12.2188 16.7676 12.6016C16.5944 12.9935 16.362 13.3307 16.0703 13.6133C15.7878 13.8958 15.4505 14.1237 15.0586 14.2969C14.6758 14.4609 14.2611 14.543 13.8145 14.543Z" fill="#212121"/>
</svg>
