<svg viewBox="0 0 20 20" fill="none"
  xmlns="http://www.w3.org/2000/svg">
  <path d="M4.16699 8.24757C4.16699 6.81924 5.38366 5.6609 6.88366 5.6609C7.11283 4.64424 7.92949 3.81507 9.02699 3.48507C10.1245 3.15424 11.3353 3.3734 12.2028 4.06007C13.0712 4.74507 13.4645 5.7934 13.2353 6.81007H13.8128C14.3475 6.80896 14.8608 7.02026 15.2398 7.3975C15.6187 7.77473 15.8323 8.28703 15.8337 8.82174C15.8323 9.35645 15.6187 9.86874 15.2398 10.246C14.8608 10.6232 14.3475 10.8345 13.8128 10.8334H6.88366C5.38366 10.8334 4.16699 9.67507 4.16699 8.24757Z" stroke="#212121" stroke-width="1.25" stroke-linecap="round" stroke-linejoin="round"/>
  <path d="M10 10.8333V13.3333" stroke="#212121" stroke-width="1.25" stroke-linecap="round" stroke-linejoin="round"/>
  <path d="M8.33301 14.9999C8.33301 15.4419 8.5086 15.8659 8.82116 16.1784C9.13372 16.491 9.55765 16.6666 9.99967 16.6666C10.4417 16.6666 10.8656 16.491 11.1782 16.1784C11.4907 15.8659 11.6663 15.4419 11.6663 14.9999C11.6663 14.5579 11.4907 14.134 11.1782 13.8214C10.8656 13.5088 10.4417 13.3333 9.99967 13.3333C9.55765 13.3333 9.13372 13.5088 8.82116 13.8214C8.5086 14.134 8.33301 14.5579 8.33301 14.9999Z" stroke="#212121" stroke-width="1.25" stroke-linecap="round" stroke-linejoin="round"/>
  <path d="M11.667 15H17.5003" stroke="#212121" stroke-width="1.25" stroke-linecap="round" stroke-linejoin="round"/>
  <path d="M2.5 15H8.33333" stroke="#212121" stroke-width="1.25" stroke-linecap="round" stroke-linejoin="round"/>
</svg>
