<svg width="201" height="61" viewBox="0 0 201 61" fill="none" xmlns="http://www.w3.org/2000/svg">
<path d="M67.4631 20.7532C68.352 19.8643 68.6483 18.8273 68.6483 17.494C68.6483 16.1606 68.2038 15.1236 67.4631 14.2347C66.7224 13.3458 65.5372 13.0495 64.2038 13.0495H61.5372V21.9384H64.2038C65.5372 21.9384 66.7224 21.494 67.4631 20.7532ZM62.7224 14.2347H64.2038C65.2409 14.2347 65.9816 14.531 66.7224 15.1236C67.315 15.7162 67.6112 16.6051 67.6112 17.6421C67.6112 18.6791 67.315 19.568 66.7224 20.1606C66.1298 20.7532 65.2409 21.0495 64.2038 21.0495H62.7224V14.2347ZM74.4261 22.2347C75.7594 22.2347 76.7964 21.7903 77.6853 20.9014C78.5742 20.0125 79.0187 18.9754 79.0187 17.6421C79.0187 16.3088 78.5742 15.2717 77.6853 14.3828C76.7964 13.494 75.7594 13.0495 74.4261 13.0495C73.0927 13.0495 72.0557 13.494 71.1668 14.3828C70.2779 15.2717 69.8335 16.3088 69.8335 17.6421C69.8335 18.9754 70.2779 20.0125 71.1668 20.9014C72.0557 21.7903 73.2409 22.2347 74.4261 22.2347ZM72.0557 14.9754C72.6483 14.2347 73.5372 13.9384 74.4261 13.9384C75.4631 13.9384 76.2038 14.2347 76.7964 14.9754C77.389 15.568 77.8335 16.4569 77.8335 17.494C77.8335 18.531 77.5372 19.4199 76.7964 20.0125C76.2038 20.7532 75.315 21.0495 74.4261 21.0495C73.389 21.0495 72.6483 20.7532 72.0557 20.0125C71.4631 19.2717 71.0187 18.531 71.0187 17.494C71.0187 16.4569 71.4631 15.7162 72.0557 14.9754ZM85.389 16.1606L83.4631 22.0866H82.2779L79.7594 13.1977H80.9446L82.8705 20.1606L84.7964 14.3828H85.8335L87.7594 20.1606L89.5372 13.1977H90.8705L88.5001 22.0866H87.3149L85.389 16.1606ZM99.0187 21.9384H97.8335L93.2409 14.6791V21.9384H92.0557V13.0495H93.389L97.6853 20.0125V13.0495H98.8705V21.9384H99.0187ZM106.13 21.9384H101.093V13.0495H102.278V20.9014H106.13V21.9384ZM114.722 14.2347C113.833 13.3458 112.796 12.9014 111.463 12.9014C110.13 12.9014 109.093 13.3458 108.204 14.2347C107.315 15.1236 106.871 16.1606 106.871 17.494C106.871 18.8273 107.315 19.8643 108.204 20.7532C109.093 21.6421 110.13 22.0866 111.463 22.0866C112.796 22.0866 113.833 21.6421 114.722 20.7532C115.611 19.8643 116.056 18.8273 116.056 17.494C116.056 16.1606 115.611 15.1236 114.722 14.2347ZM113.833 20.0125C113.241 20.7532 112.352 21.0495 111.463 21.0495C110.426 21.0495 109.685 20.7532 109.093 20.0125C108.5 19.2717 108.056 18.531 108.056 17.494C108.056 16.4569 108.352 15.568 109.093 14.9754C109.685 14.2347 110.574 13.9384 111.463 13.9384C112.5 13.9384 113.241 14.2347 113.833 14.9754C114.426 15.568 114.87 16.4569 114.87 17.494C114.87 18.531 114.574 19.4199 113.833 20.0125ZM121.241 13.0495H119.908L116.5 21.9384H117.833L118.722 19.568H122.426L123.315 21.9384H124.648L121.241 13.0495ZM119.167 18.531L120.648 14.531L122.13 18.531H119.167ZM131.908 20.7532C132.796 19.8643 133.093 18.8273 133.093 17.494C133.093 16.1606 132.648 15.1236 131.908 14.2347C131.167 13.3458 129.982 13.0495 128.648 13.0495H125.982V21.9384H128.648C129.982 21.9384 131.167 21.494 131.908 20.7532ZM127.019 14.2347H128.648C129.685 14.2347 130.426 14.531 131.167 15.1236C131.759 15.7162 132.056 16.6051 132.056 17.6421C132.056 18.6791 131.759 19.568 131.167 20.1606C130.574 20.7532 129.685 21.0495 128.648 21.0495H127.019V14.2347ZM65.5372 34.8273L60.7964 47.2717H63.4631L64.5001 44.3088H69.389L70.4261 47.2717H73.0927L68.352 34.8273H65.5372ZM65.2409 42.0866L66.4261 38.9754L66.8705 37.494H67.0187L67.4631 38.9754L68.6483 42.0866H65.2409ZM81.6853 35.8643C81.2409 35.568 80.7964 35.2717 80.352 35.1236C79.7594 34.9754 79.315 34.8273 78.7224 34.8273H74.2779V47.2717H76.6483V42.6791H78.7224C79.315 42.6791 79.9075 42.531 80.352 42.3828C80.7964 42.2347 81.389 41.9384 81.6853 41.6421C82.1298 41.3458 82.4261 40.9014 82.5742 40.4569C82.7224 40.0125 82.8705 39.4199 82.8705 38.8273C82.8705 38.2347 82.7224 37.6421 82.5742 37.1977C82.2779 36.6051 81.9816 36.3088 81.6853 35.8643ZM80.0557 40.0125C79.7594 40.3088 79.315 40.6051 78.7224 40.6051H76.6483V37.1977H78.7224C79.0187 37.1977 79.315 37.1977 79.6113 37.3458C79.9075 37.494 80.0557 37.494 80.2038 37.7903C80.352 37.9384 80.5001 38.0866 80.5001 38.3828C80.5001 38.6791 80.6483 38.8273 80.6483 38.9754C80.5001 39.1236 80.352 39.568 80.0557 40.0125ZM89.8335 40.1606L94.8705 47.2717V47.4199H92.0557L88.352 42.0866L86.8705 43.7162V47.4199H84.5001V34.9754H86.8705V40.3088H87.0187L91.6112 34.9754H94.4261V35.1236L89.8335 40.1606ZM102.278 38.6791H104.352V40.6051H102.278V47.2717H100.056V40.6051H98.5742V38.6791H100.056V37.7903C100.056 37.1977 100.204 36.7532 100.352 36.4569C100.5 36.0125 100.796 35.7162 101.093 35.4199C101.389 35.1236 101.685 34.9754 102.13 34.8273C102.278 34.6791 102.722 34.6791 103.167 34.6791C103.463 34.6791 103.759 34.6791 104.056 34.8273C104.352 34.8273 104.648 34.9754 104.796 35.1236L104.204 37.0495C104.056 37.0495 103.908 36.9014 103.759 36.9014H103.315C103.019 36.9014 102.722 37.0495 102.574 37.1977C102.426 37.3458 102.278 37.6421 102.278 38.0866V38.6791ZM112.5 39.7162C112.056 39.2717 111.611 38.9754 111.019 38.8273C110.426 38.531 109.833 38.531 109.241 38.531C108.648 38.531 107.908 38.6791 107.463 38.8273C106.871 39.1236 106.426 39.4199 105.982 39.7162C105.537 40.0125 105.241 40.6051 105.093 41.1977C104.945 41.7903 104.796 42.3828 104.796 42.9754C104.796 43.568 104.945 44.3088 105.093 44.7532C105.241 45.1977 105.685 45.7903 105.982 46.2347C106.426 46.6791 106.871 46.9754 107.463 47.1236C108.056 47.4199 108.648 47.4199 109.241 47.4199C109.833 47.4199 110.574 47.2717 111.019 47.1236C111.611 46.8273 112.056 46.531 112.5 46.2347C112.945 45.7903 113.241 45.3458 113.389 44.7532C113.537 44.1606 113.685 43.568 113.685 42.9754C113.685 42.3828 113.537 41.6421 113.389 41.1977C113.241 40.7532 112.945 40.1606 112.5 39.7162ZM111.315 44.0125C111.167 44.3088 111.019 44.6051 110.871 44.7532C110.722 44.9014 110.426 45.0495 110.13 45.1977C109.833 45.3458 109.537 45.3458 109.241 45.3458C108.945 45.3458 108.648 45.3458 108.352 45.1977C108.056 45.0495 107.908 44.9014 107.611 44.7532C107.315 44.6051 107.167 44.3088 107.167 44.0125C107.019 43.7162 107.019 43.4199 107.019 42.9754C107.019 42.531 107.019 42.2347 107.167 41.9384C107.315 41.6421 107.463 41.3458 107.611 41.1977C107.759 41.0495 108.056 40.9014 108.352 40.7532C108.648 40.6051 108.945 40.6051 109.241 40.6051C109.537 40.6051 109.833 40.6051 110.13 40.7532C110.426 40.9014 110.574 41.0495 110.871 41.1977C111.019 41.3458 111.315 41.6421 111.315 41.9384C111.463 42.2347 111.463 42.531 111.463 42.9754C111.463 43.4199 111.463 43.7162 111.315 44.0125ZM120.352 38.531C120.5 38.531 120.796 38.6791 120.945 38.8273L120.352 40.9014C120.204 40.9014 120.056 40.7532 119.908 40.7532H119.315C119.019 40.7532 118.722 40.7532 118.426 40.9014C118.13 41.0495 117.982 41.1977 117.833 41.494C117.685 41.6421 117.537 41.9384 117.389 42.2347C117.241 42.531 117.241 42.8273 117.241 43.2717V47.4199H115.019V38.8273H117.241V40.0125H117.389C117.537 39.8643 117.685 39.568 117.833 39.4199C117.982 39.2717 118.13 39.1236 118.426 38.9754C118.574 38.8273 118.871 38.6791 119.167 38.6791C119.463 38.531 119.611 38.531 119.908 38.531H120.352ZM128.945 34.8273L124.204 47.2717H126.871L127.908 44.3088H132.796L133.833 47.2717H136.5L131.759 34.8273H128.945ZM128.648 42.0866L129.833 38.9754L130.278 37.494H130.426L130.871 38.9754L132.056 42.0866H128.648ZM145.241 40.6051C145.389 41.0495 145.389 41.494 145.389 42.0866V47.2717H143.167V42.3828C143.167 41.7903 143.019 41.3458 142.722 41.0495C142.426 40.7532 141.982 40.6051 141.537 40.6051C141.241 40.6051 140.945 40.6051 140.648 40.7532C140.352 40.9014 140.204 41.0495 140.056 41.3458C139.908 41.6421 139.759 41.7903 139.759 42.0866C139.611 42.3828 139.611 42.6791 139.611 43.1236V47.2717H137.389V38.6791H139.611V39.8643H139.759C140.056 39.4199 140.352 39.1236 140.796 38.8273C141.241 38.531 141.833 38.3828 142.278 38.3828C142.87 38.3828 143.315 38.531 143.759 38.6791C144.204 38.8273 144.5 39.1236 144.796 39.4199C144.945 39.7162 145.093 40.1606 145.241 40.6051ZM153.389 38.531L153.537 39.7162H153.389C153.241 39.4199 152.796 38.9754 152.352 38.8273C151.908 38.6791 151.315 38.3828 150.722 38.3828C150.13 38.3828 149.685 38.531 149.093 38.6791L147.759 39.568C147.315 40.0125 147.019 40.4569 146.871 41.0495C146.722 41.6421 146.574 42.2347 146.574 42.8273C146.574 43.4199 146.722 44.1606 146.871 44.6051C147.019 45.0495 147.463 45.6421 147.759 46.0866C148.204 46.531 148.5 46.8273 149.093 46.9754C149.537 47.2717 150.13 47.2717 150.722 47.2717C151.315 47.2717 151.908 47.1236 152.352 46.8273C152.796 46.531 153.093 46.2347 153.389 45.9384H153.537V46.9754H155.759V34.531H153.537V38.531H153.389ZM153.389 44.0125C153.241 44.3088 153.093 44.6051 152.945 44.7532C152.796 44.9014 152.5 45.0495 152.204 45.1977C151.908 45.3458 151.611 45.3458 151.315 45.3458C151.019 45.3458 150.722 45.3458 150.426 45.1977C150.13 45.0495 149.982 44.9014 149.685 44.7532C149.389 44.6051 149.241 44.3088 149.241 44.0125C149.093 43.7162 149.093 43.4199 149.093 42.9754C149.093 42.531 149.093 42.2347 149.241 41.9384C149.389 41.6421 149.537 41.3458 149.685 41.1977C149.833 41.0495 150.13 40.7532 150.426 40.7532C150.722 40.7532 151.019 40.6051 151.315 40.6051C151.611 40.6051 151.908 40.6051 152.204 40.7532C152.5 40.9014 152.648 41.0495 152.945 41.1977C153.093 41.3458 153.389 41.6421 153.389 41.9384C153.537 42.2347 153.537 42.531 153.537 42.9754C153.537 43.4199 153.537 43.7162 153.389 44.0125ZM163.611 38.8273L163.019 40.9014C162.87 40.9014 162.722 40.7532 162.574 40.7532H161.982C161.685 40.7532 161.389 40.7532 161.093 40.9014C160.796 41.0495 160.648 41.1977 160.5 41.494C160.352 41.6421 160.204 41.9384 160.056 42.2347C159.908 42.531 159.908 42.8273 159.908 43.2717V47.4199H157.537V38.8273H159.759V40.0125H159.908C160.056 39.8643 160.204 39.568 160.352 39.4199C160.5 39.2717 160.648 39.1236 160.945 38.9754C161.093 38.8273 161.389 38.6791 161.685 38.6791C161.982 38.531 162.13 38.531 162.426 38.531C162.722 38.531 163.019 38.531 163.167 38.6791C163.167 38.6791 163.463 38.6791 163.611 38.8273ZM171.167 39.7162C170.722 39.2717 170.278 38.9754 169.685 38.8273C169.093 38.531 168.5 38.531 167.908 38.531C167.315 38.531 166.574 38.6791 166.13 38.8273C165.537 39.1236 165.093 39.4199 164.648 39.7162C164.204 40.0125 163.908 40.6051 163.759 41.1977C163.611 41.7903 163.463 42.3828 163.463 42.9754C163.463 43.568 163.611 44.3088 163.759 44.7532C163.908 45.1977 164.352 45.7903 164.648 46.2347C165.093 46.6791 165.537 46.9754 166.13 47.1236C166.722 47.4199 167.315 47.4199 167.908 47.4199C168.5 47.4199 169.241 47.2717 169.685 47.1236C170.278 46.8273 170.722 46.531 171.167 46.2347C171.611 45.7903 171.908 45.3458 172.056 44.7532C172.204 44.1606 172.352 43.568 172.352 42.9754C172.352 42.3828 172.204 41.6421 172.056 41.1977C171.908 40.7532 171.611 40.1606 171.167 39.7162ZM169.982 44.0125C169.833 44.3088 169.685 44.6051 169.537 44.7532C169.389 44.9014 169.093 45.0495 168.796 45.1977C168.5 45.3458 168.204 45.3458 167.908 45.3458C167.611 45.3458 167.315 45.3458 167.019 45.1977C166.722 45.0495 166.574 44.9014 166.278 44.7532C165.982 44.6051 165.833 44.3088 165.833 44.0125C165.685 43.7162 165.685 43.4199 165.685 42.9754C165.685 42.531 165.685 42.2347 165.833 41.9384C165.982 41.6421 166.13 41.3458 166.278 41.1977C166.426 41.0495 166.722 40.9014 167.019 40.7532C167.315 40.6051 167.611 40.6051 167.908 40.6051C168.204 40.6051 168.5 40.6051 168.796 40.7532C169.093 40.9014 169.241 41.0495 169.537 41.1977C169.685 41.3458 169.982 41.6421 169.982 41.9384C170.13 42.2347 170.13 42.531 170.13 42.9754C170.278 43.4199 170.13 43.7162 169.982 44.0125ZM175.908 35.1236C176.204 35.4199 176.352 35.7162 176.352 36.1606C176.352 36.6051 176.204 36.9014 175.908 37.1977C175.611 37.494 175.315 37.6421 174.87 37.6421C174.722 37.6421 174.426 37.6421 174.278 37.494C174.13 37.3458 173.982 37.3458 173.833 37.1977C173.685 37.0495 173.537 36.9014 173.537 36.7532C173.389 36.6051 173.389 36.4569 173.389 36.1606C173.389 35.8643 173.389 35.7162 173.537 35.568C173.685 35.4199 173.685 35.2717 173.833 35.1236C173.982 34.9754 174.13 34.8273 174.278 34.8273C174.426 34.6791 174.574 34.6791 174.87 34.6791C175.315 34.6791 175.611 34.8273 175.908 35.1236ZM173.685 38.6791H175.908V47.2717H173.685V38.6791ZM184.056 34.8273V38.531L184.204 39.7162H184.056C183.908 39.4199 183.463 38.9754 183.019 38.8273C182.574 38.6791 181.982 38.3828 181.389 38.3828C180.796 38.3828 180.352 38.531 179.759 38.6791L178.426 39.568C177.982 40.0125 177.685 40.4569 177.537 41.0495C177.389 41.6421 177.241 42.2347 177.241 42.8273C177.241 43.4199 177.389 44.1606 177.537 44.6051C177.685 45.0495 178.13 45.6421 178.426 46.0866C178.87 46.531 179.167 46.8273 179.759 46.9754C180.204 47.2717 180.796 47.2717 181.389 47.2717C181.982 47.2717 182.574 47.1236 183.019 46.8273C183.463 46.531 183.759 46.2347 184.056 45.9384H184.204V46.9754H186.426V34.531H184.056V34.8273ZM184.056 44.0125C183.908 44.3088 183.759 44.6051 183.611 44.7532C183.463 44.9014 183.167 45.0495 182.87 45.1977C182.574 45.3458 182.278 45.3458 181.982 45.3458C181.685 45.3458 181.389 45.3458 181.093 45.1977C180.796 45.0495 180.648 44.9014 180.352 44.7532C180.056 44.6051 179.908 44.3088 179.908 44.0125C179.759 43.7162 179.759 43.4199 179.759 42.9754C179.759 42.531 179.759 42.2347 179.908 41.9384C180.056 41.6421 180.204 41.3458 180.352 41.1977C180.5 41.0495 180.796 40.7532 181.093 40.7532C181.389 40.7532 181.685 40.6051 181.982 40.6051C182.278 40.6051 182.574 40.6051 182.87 40.7532C183.167 40.9014 183.315 41.0495 183.611 41.1977C183.759 41.3458 184.056 41.6421 184.056 41.9384C184.204 42.2347 184.204 42.531 184.204 42.9754C184.204 43.4199 184.204 43.7162 184.056 44.0125ZM18.5742 40.7532C18.5742 40.7532 18.1298 40.0125 16.9446 40.0125C15.7594 40.0125 14.5742 40.9014 14.5742 42.531C14.5742 44.0125 15.6113 45.0495 16.9446 45.0495C17.9816 45.0495 18.5742 44.3088 18.5742 44.3088V44.6051C18.5742 44.7532 18.7224 44.9014 18.8705 44.9014H19.6113V40.0125H18.5742V40.7532ZM17.0927 44.1606C16.352 44.1606 15.6113 43.568 15.6113 42.531C15.6113 41.6421 16.2038 40.9014 17.0927 40.9014C18.1298 40.9014 18.5742 41.7903 18.5742 42.531C18.5742 43.4199 17.9816 44.1606 17.0927 44.1606ZM25.389 41.9384V45.0495H24.6483C24.5001 45.0495 24.352 44.9014 24.352 44.7532V42.0866C24.352 41.6421 24.0557 40.9014 23.315 40.9014C22.5742 40.9014 22.1298 41.6421 22.1298 42.3828V45.0495H21.2409C21.0927 45.0495 20.9446 44.9014 20.9446 44.7532V40.1606H21.9816V40.7532C22.2779 40.3088 22.7224 40.0125 23.4631 40.0125C24.6483 40.0125 25.389 41.0495 25.389 41.9384ZM30.1298 40.7532C30.1298 40.7532 29.6853 40.0125 28.5001 40.0125C27.315 40.0125 26.1298 40.9014 26.1298 42.531C26.1298 44.0125 27.1668 45.0495 28.5001 45.0495C29.5372 45.0495 30.1298 44.3088 30.1298 44.3088V44.6051C30.1298 44.7532 30.2779 44.9014 30.4261 44.9014H31.1668V37.494H30.1298V40.7532ZM28.7964 44.1606C28.0557 44.1606 27.315 43.568 27.315 42.531C27.315 41.6421 27.9076 40.9014 28.7964 40.9014C29.8335 40.9014 30.2779 41.7903 30.2779 42.531C30.2779 43.4199 29.6853 44.1606 28.7964 44.1606ZM34.8705 40.0125H35.315V41.1977C35.1668 41.1977 35.0187 41.0495 34.7224 41.0495C33.9816 41.0495 33.5372 41.7903 33.5372 42.531V45.0495H32.7964C32.6483 45.0495 32.5001 44.9014 32.5001 44.7532V40.1606H33.5372V41.0495C33.8335 40.4569 34.1298 40.0125 34.8705 40.0125ZM41.6853 40.1606H42.7224V45.0495H41.9816C41.8335 45.0495 41.6853 44.9014 41.6853 44.7532V40.1606ZM47.6113 40.7532C47.6113 40.7532 47.1668 40.0125 45.9816 40.0125C44.7964 40.0125 43.6113 40.9014 43.6113 42.531C43.6113 44.0125 44.6483 45.0495 45.9816 45.0495C47.0187 45.0495 47.6113 44.3088 47.6113 44.3088V44.6051C47.6113 44.7532 47.7594 44.9014 47.9075 44.9014H48.6483V37.494H47.6113V40.7532ZM46.2779 44.1606C45.5372 44.1606 44.7964 43.568 44.7964 42.531C44.7964 41.6421 45.389 40.9014 46.2779 40.9014C47.315 40.9014 47.7594 41.7903 47.7594 42.531C47.7594 43.4199 47.1668 44.1606 46.2779 44.1606ZM43.0187 38.3828C43.0187 38.8273 42.7224 39.1236 42.2779 39.1236C41.8335 39.1236 41.5372 38.8273 41.5372 38.3828C41.5372 37.9384 41.8335 37.6421 42.2779 37.6421C42.7224 37.6421 43.0187 37.9384 43.0187 38.3828ZM38.2779 40.0125C37.0927 40.0125 35.7594 40.9014 35.7594 42.531C35.7594 44.0125 36.9446 45.0495 38.2779 45.0495C40.0557 45.0495 40.9446 43.568 40.9446 42.531C40.7964 41.1977 39.7594 40.0125 38.2779 40.0125ZM38.2779 44.1606C37.5372 44.1606 36.7964 43.568 36.7964 42.6791C36.7964 41.7903 37.5372 41.0495 38.2779 41.0495C39.1668 41.0495 39.7594 41.7903 39.7594 42.531C39.7594 43.4199 39.0187 44.1606 38.2779 44.1606ZM40.0557 21.0495L42.8705 16.1606C43.0187 15.8643 42.8705 15.568 42.7224 15.4199C42.4261 15.2717 42.1298 15.4199 41.9816 15.568L39.0187 20.6051C36.7964 19.568 34.4261 18.9754 31.7594 18.9754C29.0927 18.9754 26.5742 19.568 24.5001 20.6051L21.6853 15.568C21.5372 15.2717 21.2409 15.1236 20.9446 15.2717C20.6483 15.4199 20.5001 15.7162 20.6483 16.0125L23.4631 20.9014C18.5742 23.568 15.315 28.4569 14.7224 34.2347H48.9446C48.2038 28.7532 44.9446 23.7162 40.0557 21.0495ZM25.2409 28.3088C25.2409 29.0495 24.6483 29.7903 23.7594 29.7903C23.0187 29.7903 22.2779 29.1977 22.2779 28.3088C22.2779 27.568 22.8705 26.8273 23.7594 26.8273C24.6483 26.8273 25.2409 27.4199 25.2409 28.3088ZM40.9446 28.3088C40.9446 29.0495 40.352 29.7903 39.4631 29.7903C38.7224 29.7903 37.9816 29.1977 37.9816 28.3088C37.9816 27.568 38.5742 26.8273 39.4631 26.8273C40.352 26.8273 40.9446 27.4199 40.9446 28.3088Z" fill="#212121"/>
</svg>
