<svg width="201" height="61" viewBox="0 0 201 61" fill="none" xmlns="http://www.w3.org/2000/svg">
<path d="M87.1666 31.3708C85.2406 31.3708 83.4628 32.2596 82.4258 34.0374V31.5189H79.4628V51.0745H82.4258V43.8152C83.3147 45.4448 85.0925 46.4819 87.0184 46.3337C90.7221 46.3337 93.0925 43.3708 93.0925 38.7782C93.3888 34.3337 90.8703 31.3708 87.1666 31.3708ZM86.4258 43.9633C84.0554 43.9633 82.574 42.0374 82.574 39.0745C82.574 36.1115 84.0554 34.1856 86.4258 34.1856C88.7962 34.1856 90.2777 36.1115 90.2777 39.0745C90.2777 41.8893 88.648 43.9633 86.4258 43.9633ZM150.574 31.3708C146.278 31.3708 143.611 34.3337 143.611 38.9263C143.611 43.5189 146.278 46.4819 150.574 46.4819C154.87 46.4819 157.537 43.5189 157.537 38.9263C157.537 34.3337 154.87 31.3708 150.574 31.3708ZM154.574 38.9263C154.574 42.1856 153.092 43.9633 150.722 43.9633C148.352 43.9633 146.87 42.0374 146.87 38.9263C146.87 35.8152 148.352 33.8893 150.722 33.8893C153.092 33.8893 154.574 35.8152 154.574 38.9263ZM49.2406 36.5559C48.648 38.4819 47.7591 40.2596 46.7221 41.7411C45.2406 43.9633 43.611 46.1856 41.0925 46.1856C38.574 46.1856 37.8332 44.7041 35.0184 44.7041C32.2036 44.7041 31.3147 46.0374 28.9443 46.1856C26.574 46.3337 24.648 43.8152 23.1666 41.593C20.0554 37.0004 17.5369 28.7041 20.7962 23.0745C22.2777 20.2596 25.2406 18.63 28.3517 18.4819C30.7221 18.4819 32.9443 20.1115 34.4258 20.1115C35.9073 20.1115 38.574 18.1856 41.5369 18.4819C44.2036 18.63 46.7221 19.9633 48.3517 22.1856C45.9814 23.667 44.3517 26.3337 44.3517 29.1485C44.3517 32.2596 46.2777 35.2226 49.2406 36.5559ZM66.8703 26.1856L59.611 46.3337H62.8703L64.648 40.8522H72.3517L74.1295 46.3337H77.3888L70.1295 26.1856H66.8703ZM65.5369 38.3337L68.4999 29.4448H68.648L71.611 38.3337H65.5369ZM181.685 39.667V38.63C181.685 34.1856 179.167 31.3708 175.018 31.3708C170.87 31.3708 168.204 34.3337 168.204 38.9263C168.204 43.5189 170.87 46.3337 175.167 46.3337C178.426 46.3337 181.092 44.5559 181.537 41.8893H178.722C178.13 43.2226 176.796 44.1115 175.315 43.9633H174.87C172.796 43.8152 171.167 41.8893 171.463 39.8152V39.667H181.685ZM171.315 37.593C171.315 35.5189 172.944 33.8893 175.018 33.8893H175.315C177.241 34.0374 178.722 35.667 178.722 37.593H171.315ZM166.574 31.3708C166.87 31.3708 167.315 31.3708 167.611 31.5189V34.3337C167.167 34.1856 166.722 34.1856 166.278 34.1856C164.648 34.1856 163.167 35.3708 163.167 37.1485V46.3337H160.204V31.667H163.018V34.1856C163.463 32.5559 164.944 31.3708 166.574 31.3708ZM139.167 31.5189H141.981V33.8893H139.167V42.0374C139.167 43.3708 139.759 43.8152 140.944 43.8152H141.981V46.1856C141.389 46.3337 140.796 46.3337 140.352 46.3337C137.389 46.3337 136.204 45.1485 136.204 42.3337V33.8893H134.13V31.5189H136.204V27.9633H139.167V31.5189ZM132.648 40.5559C132.648 44.2596 129.685 46.63 124.796 46.63C120.352 46.63 117.241 44.2596 117.092 40.7041H120.204C120.5 42.7782 122.426 43.9633 125.092 43.9633C127.611 43.9633 129.537 42.63 129.537 40.8522C129.537 39.2226 128.5 38.3337 125.833 37.7411L123.167 37.1485C119.463 36.2596 117.685 34.4819 117.685 31.667C117.685 28.1115 120.648 25.7411 125.092 25.7411C129.389 25.7411 132.352 28.1115 132.352 31.667H129.241C129.092 29.593 127.463 28.4078 124.944 28.4078C122.574 28.4078 120.796 29.593 120.796 31.3708C120.796 32.8522 121.833 33.593 124.5 34.3337L126.722 34.9263C131.018 35.8152 132.648 37.593 132.648 40.5559ZM39.7591 15.3707C38.4258 17.0004 36.3517 18.0374 34.2777 17.8893C34.1295 15.8152 34.8703 13.7411 36.2036 12.2596C37.5369 10.63 39.4628 9.74112 41.6851 9.44482C41.6851 11.667 41.0925 13.7411 39.7591 15.3707ZM103.315 31.3708C101.389 31.3708 99.611 32.2596 98.574 34.0374V31.5189H95.611V51.0745H98.574V43.8152C99.4628 45.4448 101.241 46.4819 103.167 46.3337C106.87 46.3337 109.241 43.3708 109.241 38.7782C109.537 34.3337 107.167 31.3708 103.315 31.3708ZM102.574 43.9633C100.204 43.9633 98.7221 42.0374 98.7221 39.0745C98.7221 36.1115 100.204 34.1856 102.574 34.1856C104.944 34.1856 106.426 36.1115 106.426 39.0745C106.426 41.8893 104.944 43.9633 102.574 43.9633ZM154.278 14.4819H153.092V13.2967H154.278V11.5189H155.759V13.4448H157.389V14.63H155.759V18.3337C155.759 19.0745 156.055 19.3708 156.796 19.3708H157.389V20.5559H156.648C155.018 20.5559 154.426 19.9633 154.426 18.63V14.4819H154.278ZM170.87 20.7041C172.352 20.8522 173.685 19.9633 173.981 18.63H172.648C172.352 19.2226 171.611 19.667 170.87 19.5189H170.722C169.685 19.3708 168.796 18.4819 168.944 17.4448V17.2967H174.13V16.8522C174.13 14.4819 172.944 13.1485 170.87 13.1485H170.426C168.648 13.4448 167.315 15.0745 167.463 17.0004V17.593C167.463 19.3707 168.944 20.8522 170.87 20.7041ZM168.944 16.2596C168.944 15.2226 169.833 14.3337 170.87 14.4819H171.018C172.055 14.4819 172.648 15.3708 172.648 16.4078L168.944 16.2596ZM69.6851 15.8152V14.9263C69.5369 12.5559 67.4628 10.7782 65.0925 10.9263H61.5369V20.5559H65.0925C68.0554 20.5559 69.6851 18.7782 69.6851 15.8152ZM63.1666 19.2226V12.2596H65.5369C67.1666 12.5559 68.3517 14.0374 68.2036 15.667V16.2596C68.0554 17.8893 66.7221 19.2226 64.9443 19.0745H63.1666V19.2226ZM122.722 20.7041C123.611 20.7041 124.5 20.2596 125.092 19.3708H125.241V20.5559H126.574V10.4819H125.092V14.4819H124.944C124.5 13.593 123.611 13.1485 122.722 13.1485C120.944 13.1485 119.611 14.63 119.611 17.0004C119.759 19.2226 120.796 20.7041 122.722 20.7041ZM123.167 14.4819C124.352 14.4819 125.092 15.3708 125.092 17.0004C125.092 18.4819 124.352 19.5189 123.167 19.5189C121.981 19.5189 121.241 18.63 121.241 17.0004C121.241 15.3708 121.981 14.4819 123.167 14.4819ZM101.241 20.5559H99.7591V10.4819H101.241V20.5559ZM74.574 13.1485C72.648 13.2967 71.3147 15.0745 71.4628 17.0004V17.7411C71.611 19.667 73.3888 21.0004 75.3147 20.8522C77.2406 20.7041 78.574 18.9263 78.4258 17.0004V16.4078C78.1295 14.3337 76.4999 13.0004 74.574 13.1485ZM74.8703 19.5189C73.6851 19.5189 72.9443 18.63 72.9443 17.0004C72.9443 15.3708 73.6851 14.4819 74.8703 14.4819C76.0554 14.4819 76.7962 15.3708 76.7962 17.0004C76.7962 18.4819 76.2036 19.5189 74.8703 19.5189ZM106.278 13.1485C104.352 13.2967 103.018 15.0745 103.167 17.0004V17.7411C103.315 19.667 105.092 21.0004 107.018 20.8522C108.944 20.7041 110.278 18.9263 110.13 17.0004V16.4078C109.981 14.3337 108.204 13.0004 106.278 13.1485ZM106.722 19.5189C105.537 19.5189 104.796 18.63 104.796 17.0004C104.796 15.3708 105.537 14.4819 106.722 14.4819C107.907 14.4819 108.648 15.3708 108.648 17.0004C108.648 18.4819 107.907 19.5189 106.722 19.5189ZM142.722 16.1115V20.7041H141.241V13.2967H142.722V14.4819H142.87C143.315 13.593 144.055 13.1485 145.092 13.1485C146.426 13.0004 147.611 14.0374 147.611 15.3707V20.7041H146.13V16.2596C146.13 15.0745 145.685 14.4819 144.5 14.4819C143.611 14.4819 142.87 15.2226 142.722 16.1115ZM117.833 20.5559V15.5189C117.833 14.0374 116.796 13.0004 115.018 13.0004C113.389 13.0004 112.204 13.7411 112.055 15.0745H113.389C113.537 14.63 114.13 14.3337 114.87 14.3337C115.907 14.3337 116.352 14.7782 116.352 15.5189V16.1115L114.426 16.2596C112.648 16.4078 111.611 17.2967 111.611 18.4819V18.63C111.759 19.8152 112.796 20.7041 113.981 20.5559C114.87 20.5559 115.759 20.1115 116.204 19.3708H116.352V20.4078H117.833V20.5559ZM116.352 17.8893C116.204 18.9263 115.463 19.5189 114.426 19.5189C113.685 19.5189 113.092 19.0745 113.092 18.4819C113.092 17.8893 113.537 17.4448 114.574 17.4448L116.352 17.2967V17.8893ZM81.3888 20.5559L79.3147 13.2967H80.7962L82.1295 18.9263H82.2777L83.7591 13.2967H85.0925L86.574 18.9263H86.7221L88.0554 13.2967H89.5369L87.4628 20.5559H85.9814L84.4999 15.2226H84.3517L82.8703 20.5559H81.3888ZM139.463 17.0004V16.4078C139.315 14.4819 137.537 13.1485 135.611 13.2967C133.685 13.2967 132.352 15.0745 132.5 17.0004V17.7411C132.648 19.667 134.426 21.0004 136.352 20.8522C138.13 20.5559 139.611 18.9263 139.463 17.0004ZM133.981 17.0004C133.981 15.3708 134.722 14.4819 135.907 14.4819C137.092 14.4819 137.833 15.3708 137.833 17.0004C137.833 18.63 137.092 19.5189 135.907 19.5189C134.722 19.5189 133.981 18.63 133.981 17.0004ZM160.796 20.5559H159.315V10.3337H160.796V14.3337H160.944C161.389 13.4448 162.278 13.0004 163.167 13.0004C164.5 13.0004 165.685 13.8893 165.685 15.2226V20.4078H164.204V15.9633C164.204 14.7782 163.611 14.1856 162.574 14.1856C161.685 14.0374 160.796 14.7782 160.796 15.8152V20.5559ZM96.0554 16.2596C96.0554 15.0745 95.611 14.4819 94.4258 14.4819C93.5369 14.4819 92.648 15.2226 92.648 16.1115V20.7041H91.1666V13.2967H92.4999V14.4819H92.648C93.0925 13.593 93.8332 13.1485 94.8703 13.1485C96.2036 13.0004 97.3888 14.0374 97.3888 15.3707V20.7041H95.9073V16.2596H96.0554Z" fill="#212121"/>
</svg>
