<svg viewBox="0 0 20 20" fill="none"
  xmlns="http://www.w3.org/2000/svg">
  <path d="M8.0332 7.98047C8.06055 7.92578 8.07422 7.87109 8.07422 7.81641V7.78906C8.07422 7.70703 8.04232 7.63411 7.97852 7.57031C7.92383 7.50651 7.85547 7.46549 7.77344 7.44727L6.77539 7.46094C6.69336 7.46094 6.62956 7.47917 6.58398 7.51562C6.53841 7.55208 6.50195 7.5931 6.47461 7.63867C6.45638 7.67513 6.44271 7.71159 6.43359 7.74805C6.43359 7.78451 6.43359 7.80273 6.43359 7.80273C6.43359 7.90299 6.47005 7.98958 6.54297 8.0625C6.61589 8.1263 6.69792 8.1582 6.78906 8.1582H7.71875C7.86458 8.1582 7.9694 8.0944 8.0332 7.9668V7.98047ZM4 12.8477H15.1973V13.4219C15.1973 13.6771 15.1471 13.9232 15.0469 14.1602C14.9466 14.388 14.8099 14.5885 14.6367 14.7617C14.4727 14.9258 14.2767 15.0579 14.0488 15.1582C13.821 15.2585 13.5749 15.3086 13.3105 15.3086H5.85938C5.60417 15.3086 5.36263 15.2585 5.13477 15.1582C4.9069 15.0579 4.70638 14.9258 4.5332 14.7617C4.36914 14.5885 4.23698 14.388 4.13672 14.1602C4.04557 13.9232 4 13.6771 4 13.4219V12.8477ZM15.1973 12.1504H4V10.9746H15.1973V12.1504ZM4 10.2637V6.87305C4 6.60872 4.04557 6.36719 4.13672 6.14844C4.23698 5.92057 4.36914 5.72005 4.5332 5.54688C4.70638 5.3737 4.9069 5.24154 5.13477 5.15039C5.36263 5.05013 5.60417 5 5.85938 5H13.3105C13.5749 5 13.821 5.05013 14.0488 5.15039C14.2767 5.24154 14.4727 5.3737 14.6367 5.54688C14.8099 5.72005 14.9466 5.92057 15.0469 6.14844C15.1471 6.36719 15.1973 6.60872 15.1973 6.87305V10.2637H4ZM8.07422 7.81641L8.0332 7.9668C8.06055 7.92122 8.07422 7.87109 8.07422 7.81641Z" fill="#212121"/>
</svg>
