<svg viewBox="0 0 20 20" fill="none"
  xmlns="http://www.w3.org/2000/svg">
  <path d="M5.61328 7.73242C5.16667 7.73242 4.78385 7.89193 4.46484 8.21094C4.15495 8.52083 4 8.89909 4 9.3457V14.1445C4 14.5911 4.15495 14.974 4.46484 15.293C4.78385 15.6029 5.16667 15.7578 5.61328 15.7578H12.0254C12.472 15.7578 12.8503 15.6029 13.1602 15.293C13.4792 14.974 13.6387 14.5911 13.6387 14.1445V12.5449H7.19922C6.76172 12.5449 6.38802 12.39 6.07812 12.0801C5.76823 11.7611 5.61328 11.3828 5.61328 10.9453V7.73242ZM6.66602 5.59961C6.66602 5.16211 6.82096 4.78841 7.13086 4.47852C7.44987 4.15951 7.82812 4 8.26562 4H14.1445C14.5911 4 14.9694 4.15951 15.2793 4.47852C15.5983 4.78841 15.7578 5.16211 15.7578 5.59961V9.87891C15.7578 10.3255 15.5983 10.7038 15.2793 11.0137C14.9694 11.3236 14.5911 11.4785 14.1445 11.4785H7.73242C7.44076 11.4785 7.1901 11.3737 6.98047 11.1641C6.77083 10.9544 6.66602 10.7038 6.66602 10.4121V5.59961Z" fill="#212121"/>
</svg>
