<svg viewBox="0 0 20 20" fill="none"
  xmlns="http://www.w3.org/2000/svg">
  <path d="M7.89453 15.3496C7.47526 15.3496 7.11523 15.1992 6.81445 14.8984L3.45117 11.5078C3.15039 11.207 3 10.847 3 10.4277C3 10.2272 3.03646 10.0358 3.10938 9.85352C3.19141 9.66211 3.30534 9.49805 3.45117 9.36133C3.74284 9.06966 4.10286 8.92383 4.53125 8.92383C4.73177 8.92383 4.92318 8.96484 5.10547 9.04688C5.29688 9.11979 5.46549 9.22917 5.61133 9.375L7.89453 11.6445L14.1289 5.4375C14.4206 5.14583 14.7806 5 15.209 5C15.6283 5 15.9837 5.14583 16.2754 5.4375C16.5762 5.73828 16.7266 6.09831 16.7266 6.51758C16.7266 6.92773 16.5762 7.2832 16.2754 7.58398L8.97461 14.8984C8.67383 15.1992 8.3138 15.3496 7.89453 15.3496Z" fill="white"/>
</svg>
