<svg viewBox="0 0 20 20" fill="none"
  xmlns="http://www.w3.org/2000/svg">
  <path d="M6.66675 9.99996C6.66675 10.221 6.75455 10.4329 6.91083 10.5892C7.06711 10.7455 7.27907 10.8333 7.50008 10.8333C7.7211 10.8333 7.93306 10.7455 8.08934 10.5892C8.24562 10.4329 8.33341 10.221 8.33341 9.99996C8.33341 9.77895 8.24562 9.56698 8.08934 9.4107C7.93306 9.25442 7.7211 9.16663 7.50008 9.16663C7.27907 9.16663 7.06711 9.25442 6.91083 9.4107C6.75455 9.56698 6.66675 9.77895 6.66675 9.99996Z" stroke="#212121" stroke-width="1.25" stroke-linecap="round" stroke-linejoin="round"/>
  <path d="M11.6667 9.99996C11.6667 10.221 11.7545 10.4329 11.9108 10.5892C12.0671 10.7455 12.2791 10.8333 12.5001 10.8333C12.7211 10.8333 12.9331 10.7455 13.0893 10.5892C13.2456 10.4329 13.3334 10.221 13.3334 9.99996C13.3334 9.77895 13.2456 9.56698 13.0893 9.4107C12.9331 9.25442 12.7211 9.16663 12.5001 9.16663C12.2791 9.16663 12.0671 9.25442 11.9108 9.4107C11.7545 9.56698 11.6667 9.77895 11.6667 9.99996Z" stroke="#212121" stroke-width="1.25" stroke-linecap="round" stroke-linejoin="round"/>
  <path d="M12.9165 14.1667C12.9165 15 14.1665 16.6667 14.5832 16.6667C15.8332 16.6667 16.944 15.2775 17.4999 14.1667C18.0557 12.7775 17.9165 9.30587 16.2499 4.58337C15.0357 3.73754 13.7499 3.46671 12.4999 3.33337L11.6899 4.93587C10.5723 4.74295 9.42995 4.74295 8.31238 4.93587L7.49988 3.33337C6.24988 3.46671 4.96404 3.73754 3.74988 4.58337C2.08321 9.30587 1.94404 12.7775 2.49988 14.1667C3.05571 15.2775 4.16654 16.6667 5.41654 16.6667C5.83321 16.6667 7.08321 15 7.08321 14.1667" stroke="#212121" stroke-width="1.25" stroke-linecap="round" stroke-linejoin="round"/>
  <path d="M5.83325 13.75C8.74992 14.5833 11.2499 14.5833 14.1666 13.75" stroke="#212121" stroke-width="1.25" stroke-linecap="round" stroke-linejoin="round"/>
</svg>
