<svg viewBox="0 0 20 20" fill="none"
  xmlns="http://www.w3.org/2000/svg">
  <path d="M14.8593 5.88862C13.9395 5.46751 12.9685 5.16876 11.971 5C11.8345 5.244 11.711 5.49505 11.601 5.75208C10.5386 5.59198 9.45809 5.59198 8.39561 5.75208C8.28556 5.49507 8.16206 5.24403 8.02562 5C7.02753 5.17018 6.05585 5.46965 5.13511 5.89083C3.30721 8.59524 2.81169 11.2325 3.05945 13.8323C4.12992 14.6232 5.32807 15.2247 6.60184 15.6106C6.88865 15.2249 7.14245 14.8157 7.36053 14.3873C6.94631 14.2326 6.54652 14.0417 6.16578 13.8169C6.26599 13.7442 6.36399 13.6693 6.45869 13.5966C7.56655 14.1176 8.77572 14.3878 9.99998 14.3878C11.2242 14.3878 12.4334 14.1176 13.5413 13.5966C13.6371 13.6748 13.7351 13.7497 13.8342 13.8169C13.4527 14.0421 13.0522 14.2333 12.6372 14.3884C12.855 14.8166 13.1088 15.2254 13.3959 15.6106C14.6708 15.2262 15.8698 14.625 16.9405 13.8334C17.2312 10.8185 16.4439 8.20544 14.8593 5.88862ZM7.67436 12.2334C6.98394 12.2334 6.41354 11.6069 6.41354 10.8361C6.41354 10.0653 6.96412 9.43321 7.67215 9.43321C8.38019 9.43321 8.94618 10.0653 8.93407 10.8361C8.92195 11.6069 8.37799 12.2334 7.67436 12.2334ZM12.3256 12.2334C11.6341 12.2334 11.0659 11.6069 11.0659 10.8361C11.0659 10.0653 11.6165 9.43321 12.3256 9.43321C13.0347 9.43321 13.5963 10.0653 13.5842 10.8361C13.5721 11.6069 13.0292 12.2334 12.3256 12.2334Z" fill="#212121"/>
</svg>
