<svg viewBox="0 0 20 20" fill="none"
  xmlns="http://www.w3.org/2000/svg">
  <path d="M6.31055 15.5254C6.25586 15.6621 6.17383 15.7305 6.06445 15.7305C5.91862 15.7122 5.83203 15.6393 5.80469 15.5117L4.04102 10.7402C4.02279 10.6855 4.01367 10.64 4.01367 10.6035C4.01367 10.5306 4.02734 10.4668 4.05469 10.4121C4.09115 10.3483 4.13672 10.2982 4.19141 10.2617C4.22786 10.2435 4.26432 10.2344 4.30078 10.2344L8.38867 9.86523H8.40234C8.48438 9.86523 8.55273 9.90169 8.60742 9.97461C8.67122 10.0475 8.70312 10.1341 8.70312 10.2344C8.70312 10.2617 8.68945 10.3164 8.66211 10.3984L8.18359 11.6152C8.91276 12.39 10.0566 12.7773 11.6152 12.7773C12.2897 12.7773 12.9642 12.709 13.6387 12.5723C14.3223 12.4355 14.8919 12.2715 15.3477 12.0801C15.3659 12.071 15.3887 12.0664 15.416 12.0664C15.4798 12.0664 15.5391 12.0892 15.5938 12.1348C15.6484 12.1803 15.6849 12.2441 15.7031 12.3262C15.7122 12.3535 15.7168 12.39 15.7168 12.4355C15.7168 12.5176 15.6986 12.5905 15.6621 12.6543C15.1243 13.5566 14.3496 14.263 13.3379 14.7734C12.3353 15.2839 11.278 15.5391 10.166 15.5391C9.52799 15.5391 8.91276 15.4479 8.32031 15.2656C7.73698 15.0833 7.21289 14.8099 6.74805 14.4453L6.31055 15.5254ZM4.01367 7.41797C4.00456 7.39062 4 7.35417 4 7.30859C4 7.22656 4.02279 7.14909 4.06836 7.07617C4.59701 6.17383 5.36263 5.46745 6.36523 4.95703C7.37695 4.44661 8.4388 4.19141 9.55078 4.19141C10.1888 4.19141 10.7995 4.28255 11.3828 4.46484C11.9753 4.64714 12.5039 4.92057 12.9688 5.28516L13.4062 4.20508C13.4701 4.06836 13.5612 4 13.6797 4C13.8164 4.01823 13.8984 4.09115 13.9258 4.21875L15.6895 8.99023C15.7077 9.04492 15.7168 9.09049 15.7168 9.12695C15.7168 9.19076 15.6986 9.25456 15.6621 9.31836C15.6348 9.38216 15.5983 9.43229 15.5527 9.46875L15.498 9.49609C15.4798 9.50521 15.4616 9.50977 15.4434 9.50977L11.3418 9.86523H11.3145C11.2051 9.86523 11.123 9.8151 11.0684 9.71484C11.0319 9.66927 11.0137 9.60547 11.0137 9.52344C11.0137 9.45052 11.0273 9.38672 11.0547 9.33203L11.5332 8.11523C10.804 7.34049 9.66016 6.95312 8.10156 6.95312C7.42708 6.95312 6.7526 7.02148 6.07812 7.1582C5.40365 7.29492 4.83854 7.45898 4.38281 7.65039C4.36458 7.65951 4.33724 7.66406 4.30078 7.66406C4.17318 7.66406 4.07747 7.58203 4.01367 7.41797Z" fill="#212121"/>
</svg>
