<svg viewBox="0 0 20 20" fill="none"
  xmlns="http://www.w3.org/2000/svg">
  <path d="M2.5 3.33333C2.5 3.11232 2.5878 2.90036 2.74408 2.74408C2.90036 2.5878 3.11232 2.5 3.33333 2.5H6.66667C6.88768 2.5 7.09964 2.5878 7.25592 2.74408C7.4122 2.90036 7.5 3.11232 7.5 3.33333V6.66667C7.5 6.88768 7.4122 7.09964 7.25592 7.25592C7.09964 7.4122 6.88768 7.5 6.66667 7.5H3.33333C3.11232 7.5 2.90036 7.4122 2.74408 7.25592C2.5878 7.09964 2.5 6.88768 2.5 6.66667V3.33333Z" stroke="#212121" stroke-width="1.25" stroke-linecap="round" stroke-linejoin="round"/>
  <path d="M12.5 13.3333C12.5 13.1123 12.5878 12.9004 12.7441 12.7441C12.9004 12.5878 13.1123 12.5 13.3333 12.5H16.6667C16.8877 12.5 17.0996 12.5878 17.2559 12.7441C17.4122 12.9004 17.5 13.1123 17.5 13.3333V16.6667C17.5 16.8877 17.4122 17.0996 17.2559 17.2559C17.0996 17.4122 16.8877 17.5 16.6667 17.5H13.3333C13.1123 17.5 12.9004 17.4122 12.7441 17.2559C12.5878 17.0996 12.5 16.8877 12.5 16.6667V13.3333Z" stroke="#212121" stroke-width="1.25" stroke-linecap="round" stroke-linejoin="round"/>
  <path d="M17.4997 9.16667V6.66667C17.4997 6.22464 17.3241 5.80072 17.0115 5.48816C16.699 5.17559 16.275 5 15.833 5H10.833M10.833 5L13.333 7.5M10.833 5L13.333 2.5" stroke="#212121" stroke-width="1.25" stroke-linecap="round" stroke-linejoin="round"/>
  <path d="M2.5 10.8333V13.3333C2.5 13.7753 2.67559 14.1992 2.98816 14.5118C3.30072 14.8243 3.72464 14.9999 4.16667 14.9999H9.16667M9.16667 14.9999L6.66667 12.4999M9.16667 14.9999L6.66667 17.4999" stroke="#212121" stroke-width="1.25" stroke-linecap="round" stroke-linejoin="round"/>
</svg>
