<svg viewBox="0 0 20 20" fill="none"
  xmlns="http://www.w3.org/2000/svg">
  <path d="M17 10.0257C17 6.14555 13.866 3 10 3C6.13404 3 3 6.14555 3 10.0257C3 13.3205 5.26016 16.0853 8.30908 16.8446V12.1728H6.86568V10.0257H8.30908V9.10057C8.30908 6.7093 9.38736 5.60092 11.7265 5.60092C12.17 5.60092 12.9352 5.68832 13.2483 5.77544V7.72156C13.0831 7.70414 12.7961 7.69543 12.4396 7.69543C11.2919 7.69543 10.8484 8.13186 10.8484 9.26637V10.0257H13.1349L12.742 12.1728H10.8484V17C14.3145 16.5799 17 13.6178 17 10.0257Z" fill="#212121"/>
</svg>
