<svg viewBox="0 0 20 20" fill="none"
  xmlns="http://www.w3.org/2000/svg">
  <path d="M17 10C17 11.0117 16.7949 11.9642 16.3848 12.8574C15.9746 13.7507 15.4095 14.5254 14.6895 15.1816C13.9694 15.8379 13.1491 16.3301 12.2285 16.6582C12.1829 16.6673 12.1419 16.6719 12.1055 16.6719C12.0143 16.6719 11.9323 16.64 11.8594 16.5762C11.7956 16.5124 11.7637 16.4167 11.7637 16.2891V14.375C11.7637 14.0651 11.7181 13.8008 11.627 13.582C11.5358 13.3633 11.4219 13.1992 11.2852 13.0898C12.2331 12.9805 12.9987 12.6797 13.582 12.1875C14.1745 11.6953 14.4707 10.8522 14.4707 9.6582C14.4707 8.91992 14.2292 8.28646 13.7461 7.75781C13.8372 7.54818 13.8828 7.29297 13.8828 6.99219C13.8828 6.63672 13.8099 6.27669 13.6641 5.91211C13.6185 5.90299 13.5684 5.89844 13.5137 5.89844C13.3496 5.89844 13.1172 5.94857 12.8164 6.04883C12.5247 6.14909 12.1602 6.34505 11.7227 6.63672C11.3034 6.5 10.7201 6.43164 9.97266 6.43164C9.41667 6.43164 8.82878 6.5 8.20898 6.63672C7.81706 6.35417 7.47526 6.1582 7.18359 6.04883C6.90104 5.93945 6.67318 5.88477 6.5 5.88477C6.41797 5.88477 6.35872 5.89388 6.32227 5.91211C6.17643 6.24935 6.10352 6.59115 6.10352 6.9375C6.10352 7.26562 6.1582 7.53906 6.26758 7.75781C5.78451 8.30469 5.54297 8.93815 5.54297 9.6582C5.54297 10.8522 5.83008 11.6953 6.4043 12.1875C6.98763 12.6797 7.75781 12.9896 8.71484 13.1172C8.45964 13.3268 8.31836 13.6413 8.29102 14.0605C8.03581 14.179 7.77148 14.2383 7.49805 14.2383C6.9694 14.2383 6.55924 13.9785 6.26758 13.459C6.14909 13.2676 5.9987 13.1035 5.81641 12.9668C5.63411 12.8301 5.42904 12.7572 5.20117 12.748C4.99154 12.748 4.88672 12.7936 4.88672 12.8848C4.88672 12.9486 4.97331 13.0443 5.14648 13.1719C5.2832 13.2448 5.41992 13.3678 5.55664 13.541C5.70247 13.7142 5.82552 13.9329 5.92578 14.1973C6.03516 14.4798 6.22656 14.7214 6.5 14.9219C6.78255 15.1224 7.14258 15.2227 7.58008 15.2227C7.79883 15.2227 8.03581 15.1953 8.29102 15.1406V16.3438C8.29102 16.444 8.25456 16.526 8.18164 16.5898C8.10872 16.6536 8.01302 16.6855 7.89453 16.6855C7.86719 16.6855 7.83984 16.6855 7.8125 16.6855C6.88281 16.3483 6.05339 15.8516 5.32422 15.1953C4.59505 14.5299 4.02539 13.7507 3.61523 12.8574C3.20508 11.9642 3 11.0117 3 10C3 8.72396 3.31445 7.55273 3.94336 6.48633C4.57227 5.41081 5.41992 4.56315 6.48633 3.94336C7.56185 3.31445 8.73307 3 10 3C11.2669 3 12.4336 3.31445 13.5 3.94336C14.5755 4.56315 15.4277 5.41081 16.0566 6.48633C16.6855 7.55273 17 8.72396 17 10Z" fill="#212121"/>
</svg>
