<svg width="201" height="61" viewBox="0 0 201 61" fill="none" xmlns="http://www.w3.org/2000/svg">
<path d="M89.8333 9.93228H88.6481V18.8212H89.8333V9.93228ZM94.8703 18.8212V10.9693H97.3888V9.93228H91.3148V10.9693H93.8333V18.8212H94.8703ZM81.8333 18.8212V10.9693H84.3518V9.93228H78.2777V10.9693H80.7962V18.8212H81.8333ZM65.8333 19.1175C67.1666 19.1175 68.2036 18.673 69.0925 17.7841C69.8333 17.0434 70.1296 16.0064 70.1296 14.8212V14.0804H65.8333V15.1175H69.0925C68.9444 16.0064 68.6481 16.5989 68.0555 17.1915C67.4629 17.636 66.7222 17.9323 65.8333 17.9323C64.7962 17.9323 64.0555 17.636 63.3148 16.8952C62.7222 16.1545 62.2777 15.4138 62.2777 14.3767C62.2777 13.3397 62.574 12.4508 63.3148 11.8582C64.0555 11.1175 64.7962 10.8212 65.8333 10.8212C66.2777 10.8212 66.7222 10.9693 67.1666 11.1175C67.6111 11.2656 67.9074 11.5619 68.2036 11.8582L69.0925 10.9693C68.6481 10.5249 68.2036 10.2286 67.6111 9.93228C67.0185 9.63599 66.4259 9.63599 65.8333 9.63599C64.4999 9.63599 63.4629 10.0804 62.574 10.9693C61.6851 11.8582 61.2407 12.8952 61.2407 14.2286C61.2407 15.5619 61.6851 16.5989 62.574 17.4878C63.4629 18.5249 64.4999 19.1175 65.8333 19.1175ZM112.944 13.3397V11.7101L117.537 18.9693H118.722V10.0804H117.537V17.0434L113.241 10.0804H111.907V18.9693H113.093V13.3397H112.944ZM102.426 17.636C101.537 16.7471 101.093 15.7101 101.093 14.3767C101.093 13.0434 101.537 12.0064 102.426 11.1175C103.315 10.2286 104.352 9.78413 105.685 9.78413C107.018 9.78413 108.056 10.2286 108.944 11.1175C109.833 12.0064 110.278 13.0434 110.278 14.3767C110.278 15.7101 109.833 16.7471 108.944 17.636C108.056 18.5249 107.018 18.9693 105.685 18.9693C104.352 19.1175 103.315 18.5249 102.426 17.636ZM102.426 14.3767C102.426 15.4138 102.722 16.3027 103.463 16.8952C104.056 17.636 104.944 17.9323 105.833 17.9323C106.87 17.9323 107.611 17.636 108.204 16.8952C108.796 16.3027 109.241 15.4138 109.241 14.3767C109.241 13.3397 108.944 12.4508 108.204 11.8582C107.611 11.1175 106.722 10.8212 105.833 10.8212C104.796 10.8212 104.056 11.1175 103.463 11.8582C102.574 12.4508 102.426 13.3397 102.426 14.3767ZM76.9444 17.7841H72.9444V14.9693H76.6481V13.7841H72.9444V10.9693H76.9444V9.93228H71.7592V18.8212H76.9444V17.7841ZM158.426 44.0064H161.241V25.4878H158.426V44.0064ZM156.944 31.2656C156.944 34.8212 153.981 37.0434 150.87 37.0434H147.018V44.0064H144.204V25.4878H150.87C153.981 25.4878 156.944 27.7101 156.944 31.2656ZM153.981 31.2656C153.981 29.7841 152.796 28.1545 150.722 28.1545H146.722V34.5249H150.722C152.796 34.3767 153.981 32.7471 153.981 31.2656ZM183.167 32.1545L180.056 40.1545H179.907L176.648 32.1545H173.685L178.574 43.4138L175.759 49.636H178.574L186.13 32.1545H183.167ZM173.537 37.0434V44.1545H170.87V42.673H170.722C170.13 43.7101 169.093 44.4508 167.167 44.4508C164.796 44.4508 162.574 42.8212 162.574 40.3027C162.574 37.636 165.241 36.1545 167.907 36.1545C169.241 36.1545 170.278 36.5989 170.722 36.8952V36.7471C170.722 35.2656 169.241 34.3767 167.759 34.3767C166.722 34.3767 165.685 34.673 165.241 35.7101L162.722 34.673C163.611 32.7471 165.685 31.8582 167.611 31.8582C171.018 31.8582 173.537 33.636 173.537 37.0434ZM171.018 38.9693C170.278 38.673 169.685 38.3767 168.5 38.3767C167.167 38.3767 165.537 38.9693 165.537 40.3027C165.537 41.4878 166.87 41.9323 167.759 41.9323C169.093 41.9323 170.574 40.7471 171.018 38.9693ZM137.981 36.4508L129.537 40.0064C130.13 41.3397 131.167 41.9323 132.648 41.9323C134.13 41.9323 135.018 41.1915 135.759 40.1545L137.833 41.636C137.093 42.673 135.463 44.4508 132.648 44.4508C129.093 44.4508 126.426 41.636 126.426 38.0804C126.426 34.3767 129.093 31.7101 132.352 31.7101C135.611 31.7101 137.241 34.3767 137.685 35.7101L137.981 36.4508ZM135.018 35.5619C134.722 34.8212 133.833 34.2286 132.648 34.2286C131.167 34.2286 129.241 35.4138 129.389 37.9323L135.018 35.5619ZM122.278 44.0064H125.093V25.4878H122.278V44.0064ZM107.315 38.0804C107.315 41.636 104.5 44.4508 100.944 44.4508C97.3888 44.4508 94.574 41.7841 94.574 38.0804C94.574 34.3767 97.3888 31.7101 100.944 31.7101C104.352 31.8582 107.315 34.3767 107.315 38.0804ZM104.352 38.0804C104.352 35.8582 102.722 34.2286 100.796 34.2286C98.8703 34.2286 97.2407 35.7101 97.2407 38.0804C97.2407 40.3027 98.8703 41.9323 100.796 41.9323C102.722 41.9323 104.352 40.3027 104.352 38.0804ZM117.833 32.1545H120.5V43.4138C120.5 48.0064 117.685 49.9323 114.574 49.9323C111.463 49.9323 109.685 47.8582 108.944 46.2286L111.315 45.1915C111.759 46.2286 112.796 47.4138 114.426 47.4138C116.5 47.4138 117.833 46.0804 117.833 43.7101V42.8212H117.685C117.093 43.5619 115.907 44.3026 114.426 44.3026C111.315 44.3026 108.352 41.4878 108.352 38.0804C108.352 34.5249 111.167 31.7101 114.426 31.7101C115.907 31.7101 117.093 32.4508 117.685 33.1915H117.833V32.1545ZM117.981 38.0804C117.981 35.8582 116.5 34.2286 114.574 34.2286C112.648 34.2286 111.018 35.8582 111.018 38.0804C111.018 40.3027 112.648 41.9323 114.574 41.9323C116.5 41.9323 117.981 40.3027 117.981 38.0804ZM70.574 33.9323V36.5989H76.9444C76.7962 38.0804 76.2037 39.2656 75.4629 40.0064C74.574 40.8952 73.0925 41.9323 70.574 41.9323C66.574 41.9323 63.6111 38.8212 63.6111 34.8212C63.6111 30.8212 66.7222 27.7101 70.574 27.7101C72.6481 27.7101 74.2777 28.5989 75.4629 29.636L77.3888 27.7101C75.7592 26.2286 73.6851 25.0434 70.7222 25.0434C65.3888 25.0434 60.7962 29.4878 60.7962 34.8212C60.7962 40.1545 65.3888 44.5989 70.7222 44.5989C73.6851 44.5989 75.7592 43.7101 77.537 41.7841C79.3148 40.0064 79.9074 37.4878 79.9074 35.5619C79.9074 34.9693 79.9074 34.3767 79.7592 33.9323H70.574ZM93.3888 38.0804C93.3888 41.636 90.574 44.4508 87.0185 44.4508C83.4629 44.4508 80.6481 41.7841 80.6481 38.0804C80.6481 34.3767 83.4629 31.7101 87.0185 31.7101C90.574 31.8582 93.3888 34.3767 93.3888 38.0804ZM90.574 38.0804C90.574 35.8582 88.9444 34.2286 87.0185 34.2286C85.0925 34.2286 83.4629 35.7101 83.4629 38.0804C83.4629 40.3027 85.0925 41.9323 87.0185 41.9323C88.9444 41.9323 90.574 40.3027 90.574 38.0804ZM15.0185 12.7471C15.6111 11.2656 17.2407 10.0804 18.8703 10.0804C19.6111 10.0804 20.4999 10.3767 21.0925 10.673L38.4259 20.7471L30.7222 28.4508L15.0185 12.7471ZM46.574 25.4878L39.3148 21.3397L31.4629 29.1915L39.3148 37.0434L46.4259 32.8952C47.7592 32.1545 48.6481 30.8212 48.6481 29.1915C48.7962 27.5619 47.9074 26.2286 46.574 25.4878ZM14.7222 13.9323V44.4508L29.9814 29.1915L14.7222 13.9323ZM30.7222 29.9323L15.0185 45.7841C15.6111 47.2656 17.2407 48.4508 18.8703 48.4508C19.6111 48.4508 20.3518 48.3027 21.0925 47.8582L38.4259 37.7841L30.7222 29.9323Z" fill="#212121"/>
</svg>
