<svg viewBox="0 0 20 20" fill="none"
  xmlns="http://www.w3.org/2000/svg">
  <path d="M10 13.4863C10.4831 13.4863 10.9388 13.3952 11.3672 13.2129C11.7865 13.0306 12.1556 12.7799 12.4746 12.4609C12.7936 12.1419 13.0443 11.7682 13.2266 11.3398C13.3997 10.9297 13.4863 10.4785 13.4863 9.98633C13.4863 9.50326 13.3997 9.04753 13.2266 8.61914C13.0443 8.19987 12.7936 7.83529 12.4746 7.52539C12.1556 7.20638 11.7865 6.95573 11.3672 6.77344C10.9388 6.58203 10.4831 6.48633 10 6.48633C9.51693 6.48633 9.0612 6.58203 8.63281 6.77344C8.21354 6.95573 7.8444 7.20638 7.52539 7.52539C7.20638 7.83529 6.95573 8.19987 6.77344 8.61914C6.60026 9.04753 6.51367 9.50326 6.51367 9.98633C6.51367 10.4785 6.60026 10.9297 6.77344 11.3398C6.95573 11.7682 7.20638 12.1419 7.52539 12.4609C7.8444 12.7799 8.21354 13.0306 8.63281 13.2129C9.0612 13.3952 9.51693 13.4863 10 13.4863ZM14.1973 6.48633C14.1973 6.29492 14.1289 6.13086 13.9922 5.99414C13.8555 5.85742 13.6868 5.78906 13.4863 5.78906C13.304 5.78906 13.1445 5.85742 13.0078 5.99414C12.8711 6.13086 12.8027 6.29492 12.8027 6.48633C12.8027 6.68685 12.8711 6.85547 13.0078 6.99219C13.1445 7.12891 13.304 7.19727 13.4863 7.19727C13.6868 7.19727 13.8555 7.12891 13.9922 6.99219C14.1289 6.85547 14.1973 6.68685 14.1973 6.48633ZM12.8027 3C13.3861 3 13.9284 3.10938 14.4297 3.32812C14.9401 3.54688 15.3822 3.84766 15.7559 4.23047C16.1387 4.60417 16.444 5.04622 16.6719 5.55664C16.8906 6.07617 17 6.62305 17 7.19727V12.7891C17 13.3633 16.8906 13.9102 16.6719 14.4297C16.444 14.931 16.1387 15.373 15.7559 15.7559C15.3822 16.1387 14.9401 16.4395 14.4297 16.6582C13.9284 16.877 13.3861 16.9863 12.8027 16.9863H7.19727C6.61393 16.9863 6.07161 16.877 5.57031 16.6582C5.0599 16.4395 4.61328 16.1387 4.23047 15.7559C3.85677 15.373 3.55599 14.931 3.32812 14.4297C3.10938 13.9102 3 13.3633 3 12.7891V7.19727C3 6.62305 3.10938 6.07617 3.32812 5.55664C3.55599 5.04622 3.85677 4.60417 4.23047 4.23047C4.61328 3.84766 5.0599 3.54688 5.57031 3.32812C6.07161 3.10938 6.61393 3 7.19727 3H12.8027ZM10 12.0781C9.41667 12.0781 8.91992 11.873 8.50977 11.4629C8.10872 11.0527 7.9082 10.5605 7.9082 9.98633C7.9082 9.40299 8.10872 8.90625 8.50977 8.49609C8.91992 8.08594 9.41667 7.88086 10 7.88086C10.5833 7.88086 11.0755 8.08594 11.4766 8.49609C11.8867 8.90625 12.0918 9.40299 12.0918 9.98633C12.0918 10.5605 11.8867 11.0527 11.4766 11.4629C11.0755 11.873 10.5833 12.0781 10 12.0781Z" fill="#212121"/>
</svg>
