<svg viewBox="0 0 20 20" fill="none"
  xmlns="http://www.w3.org/2000/svg">
  <path d="M3.33325 6.66671C3.33325 5.78265 3.68444 4.93481 4.30956 4.30968C4.93468 3.68456 5.78253 3.33337 6.66659 3.33337H13.3333C14.2173 3.33337 15.0652 3.68456 15.6903 4.30968C16.3154 4.93481 16.6666 5.78265 16.6666 6.66671V13.3334C16.6666 14.2174 16.3154 15.0653 15.6903 15.6904C15.0652 16.3155 14.2173 16.6667 13.3333 16.6667H6.66659C5.78253 16.6667 4.93468 16.3155 4.30956 15.6904C3.68444 15.0653 3.33325 14.2174 3.33325 13.3334V6.66671Z" stroke="#212121" stroke-width="1.25" stroke-linecap="round" stroke-linejoin="round"/>
  <path d="M7.5 10C7.5 10.663 7.76339 11.2989 8.23223 11.7678C8.70107 12.2366 9.33696 12.5 10 12.5C10.663 12.5 11.2989 12.2366 11.7678 11.7678C12.2366 11.2989 12.5 10.663 12.5 10C12.5 9.33696 12.2366 8.70107 11.7678 8.23223C11.2989 7.76339 10.663 7.5 10 7.5C9.33696 7.5 8.70107 7.76339 8.23223 8.23223C7.76339 8.70107 7.5 9.33696 7.5 10Z" stroke="#212121" stroke-width="1.25" stroke-linecap="round" stroke-linejoin="round"/>
  <path d="M13.75 6.25V6.25833" stroke="#212121" stroke-width="1.25" stroke-linecap="round" stroke-linejoin="round"/>
</svg>
