<svg viewBox="0 0 20 20" fill="none"
  xmlns="http://www.w3.org/2000/svg">
  <path fill-rule="evenodd" clip-rule="evenodd" d="M3 5.69231C3 4.20539 4.20539 3 5.69231 3H14.3077C15.7946 3 17 4.20539 17 5.69231V14.3077C17 15.7946 15.7946 17 14.3077 17H5.69231C4.20539 17 3 15.7946 3 14.3077V5.69231ZM5.47659 8.70765V14.523H7.41505V8.70765H5.47659ZM5.82664 7.37081C6.0083 7.49886 6.22366 7.57053 6.44582 7.57688C6.74976 7.58034 7.04271 7.46334 7.26065 7.25146C7.47859 7.03957 7.60379 6.75003 7.60889 6.44611C7.6088 6.22386 7.54322 6.00657 7.42034 5.82138C7.29746 5.63619 7.12273 5.49132 6.91799 5.40486C6.71324 5.31841 6.48756 5.29421 6.26914 5.33529C6.05072 5.37636 5.84924 5.48089 5.68989 5.63582C5.53054 5.79074 5.42037 5.98919 5.37316 6.20637C5.32595 6.42355 5.34379 6.64982 5.42444 6.85692C5.50509 7.06402 5.64499 7.24276 5.82664 7.37081ZM12.5843 14.523H14.5227L14.4969 11.008C14.4969 9.19873 13.3274 8.64304 12.3258 8.64304C11.9819 8.63184 11.6409 8.70914 11.3354 8.86753C11.0299 9.02593 10.7702 9.26011 10.5812 9.54765V8.70765H8.70736V14.523H10.6458V11.5055C10.6426 11.4754 10.6426 11.4451 10.6458 11.415C10.6353 11.2673 10.654 11.119 10.701 10.9785C10.7479 10.8381 10.8222 10.7083 10.9195 10.5966C11.0167 10.4849 11.1351 10.3936 11.2678 10.3278C11.4004 10.262 11.5448 10.223 11.6926 10.2132C12.1966 10.2132 12.5843 10.5427 12.5843 11.4603V14.523Z" fill="#212121"/>
</svg>
