<svg viewBox="0 0 20 20" fill="none"
  xmlns="http://www.w3.org/2000/svg">
  <path d="M12.832 7.52539C12.832 7.15169 12.7227 6.79167 12.5039 6.44531C12.2943 6.08984 11.998 5.80729 11.6152 5.59766C11.2324 5.37891 10.804 5.26953 10.3301 5.26953C9.82878 5.26953 9.38672 5.38346 9.00391 5.61133C8.62109 5.83008 8.32487 6.11719 8.11523 6.47266C7.91471 6.81901 7.81445 7.16992 7.81445 7.52539H12.832ZM4 9.13867C4 8.73763 4.13216 8.38672 4.39648 8.08594C4.66992 7.77604 5.00716 7.59831 5.4082 7.55273C5.4082 6.73242 5.62695 5.97591 6.06445 5.2832C6.50195 4.58138 7.0944 4.02539 7.8418 3.61523C8.59831 3.20508 9.42773 3 10.3301 3C11.2233 3 12.0436 3.20052 12.791 3.60156C13.5475 4.0026 14.1445 4.54948 14.582 5.24219C15.0195 5.9349 15.2383 6.69596 15.2383 7.52539C15.6302 7.58919 15.9538 7.76693 16.209 8.05859C16.4642 8.35026 16.5918 8.6875 16.5918 9.07031C16.5918 9.08854 16.5918 9.10221 16.5918 9.11133V15.4141C16.5918 15.8607 16.4368 16.2344 16.127 16.5352C15.8171 16.8451 15.4342 17 14.9785 17H5.61328C5.15755 17 4.77474 16.8451 4.46484 16.5352C4.15495 16.2344 4 15.8607 4 15.4141V9.13867Z" fill="#212121"/>
</svg>
