<svg viewBox="0 0 20 20" fill="none"
  xmlns="http://www.w3.org/2000/svg">
  <path d="M9.58366 17.5001H5.83366C5.39163 17.5001 4.96771 17.3245 4.65515 17.0119C4.34259 16.6994 4.16699 16.2754 4.16699 15.8334V10.8334C4.16699 10.3914 4.34259 9.96746 4.65515 9.6549C4.96771 9.34234 5.39163 9.16675 5.83366 9.16675H14.167C14.609 9.16675 15.0329 9.34234 15.3455 9.6549C15.6581 9.96746 15.8337 10.3914 15.8337 10.8334V11.2501" stroke="#212121" stroke-width="1.25" stroke-linecap="round" stroke-linejoin="round"/>
  <path d="M9.16699 13.3333C9.16699 13.5543 9.25479 13.7663 9.41107 13.9226C9.56735 14.0789 9.77931 14.1667 10.0003 14.1667C10.2213 14.1667 10.4333 14.0789 10.5896 13.9226C10.7459 13.7663 10.8337 13.5543 10.8337 13.3333C10.8337 13.1123 10.7459 12.9004 10.5896 12.7441C10.4333 12.5878 10.2213 12.5 10.0003 12.5C9.77931 12.5 9.56735 12.5878 9.41107 12.7441C9.25479 12.9004 9.16699 13.1123 9.16699 13.3333Z" stroke="#212121" stroke-width="1.25" stroke-linecap="round" stroke-linejoin="round"/>
  <path d="M6.66699 9.16667V5.83333C6.66699 4.94928 7.01818 4.10143 7.6433 3.47631C8.26842 2.85119 9.11627 2.5 10.0003 2.5C10.8844 2.5 11.7322 2.85119 12.3573 3.47631C12.9825 4.10143 13.3337 4.94928 13.3337 5.83333V9.16667" stroke="#212121" stroke-width="1.25" stroke-linecap="round" stroke-linejoin="round"/>
  <path d="M12.5 15.8334L14.1667 17.5001L17.5 14.1667" stroke="#212121" stroke-width="1.25" stroke-linecap="round" stroke-linejoin="round"/>
</svg>
