<svg viewBox="0 0 20 20" fill="none"
  xmlns="http://www.w3.org/2000/svg">
  <path d="M3.33325 5.00004C3.33325 4.55801 3.50885 4.13409 3.82141 3.82153C4.13397 3.50897 4.55789 3.33337 4.99992 3.33337H14.9999C15.4419 3.33337 15.8659 3.50897 16.1784 3.82153C16.491 4.13409 16.6666 4.55801 16.6666 5.00004V15C16.6666 15.4421 16.491 15.866 16.1784 16.1786C15.8659 16.4911 15.4419 16.6667 14.9999 16.6667H4.99992C4.55789 16.6667 4.13397 16.4911 3.82141 16.1786C3.50885 15.866 3.33325 15.4421 3.33325 15V5.00004Z" stroke="#212121" stroke-width="1.25" stroke-linecap="round" stroke-linejoin="round"/>
  <path d="M6.66675 7.5H7.50008L10.0001 10L12.5001 7.5H13.3334" stroke="#212121" stroke-width="1.25" stroke-linecap="round" stroke-linejoin="round"/>
  <path d="M6.66675 12.5H8.33341" stroke="#212121" stroke-width="1.25" stroke-linecap="round" stroke-linejoin="round"/>
  <path d="M11.6667 12.5H13.3334" stroke="#212121" stroke-width="1.25" stroke-linecap="round" stroke-linejoin="round"/>
  <path d="M7.5 7.5V12.5" stroke="#212121" stroke-width="1.25" stroke-linecap="round" stroke-linejoin="round"/>
  <path d="M12.5 7.5V12.5" stroke="#212121" stroke-width="1.25" stroke-linecap="round" stroke-linejoin="round"/>
</svg>
