<svg viewBox="0 0 20 20" fill="none"
  xmlns="http://www.w3.org/2000/svg">
  <path d="M17 9.97852C17 10.5801 16.9681 11.1406 16.9043 11.6602C16.8405 12.1706 16.7539 12.5762 16.6445 12.877C16.5443 13.1777 16.4349 13.3281 16.3164 13.3281C16.1159 13.3281 15.9473 13.0046 15.8105 12.3574C15.6738 11.7012 15.6055 10.9082 15.6055 9.97852C15.6055 9.04883 15.6738 8.25586 15.8105 7.59961C15.9473 6.94336 16.1159 6.61523 16.3164 6.61523C16.4349 6.61523 16.5443 6.76562 16.6445 7.06641C16.7539 7.36719 16.8405 7.77734 16.9043 8.29688C16.9681 8.80729 17 9.36784 17 9.97852ZM3 9.97852C3 9.25846 3.17773 8.5931 3.5332 7.98242C3.88867 7.37174 4.36719 6.88867 4.96875 6.5332C5.57031 6.17773 6.23112 6 6.95117 6C7.67122 6 8.33203 6.17773 8.93359 6.5332C9.53516 6.88867 10.0137 7.37174 10.3691 7.98242C10.7246 8.5931 10.9023 9.25846 10.9023 9.97852C10.9023 10.6986 10.7246 11.3639 10.3691 11.9746C10.0137 12.5853 9.53516 13.0684 8.93359 13.4238C8.33203 13.7793 7.67122 13.957 6.95117 13.957C6.23112 13.957 5.57031 13.7793 4.96875 13.4238C4.36719 13.0684 3.88867 12.5853 3.5332 11.9746C3.17773 11.3639 3 10.6986 3 9.97852ZM11.2852 9.97852C11.2852 9.29492 11.3717 8.66602 11.5449 8.0918C11.7272 7.51758 11.9688 7.06641 12.2695 6.73828C12.5703 6.40104 12.8984 6.23242 13.2539 6.23242C13.6094 6.23242 13.9375 6.40104 14.2383 6.73828C14.5391 7.06641 14.776 7.51758 14.9492 8.0918C15.1315 8.66602 15.2227 9.29492 15.2227 9.97852C15.2227 10.653 15.1315 11.2773 14.9492 11.8516C14.776 12.4258 14.5391 12.8815 14.2383 13.2188C13.9375 13.556 13.6094 13.7246 13.2539 13.7246C12.8984 13.7246 12.5703 13.556 12.2695 13.2188C11.9688 12.8815 11.7272 12.4258 11.5449 11.8516C11.3717 11.2773 11.2852 10.653 11.2852 9.97852Z" fill="#212121"/>
</svg>
