<svg viewBox="0 0 20 20" fill="none"
  xmlns="http://www.w3.org/2000/svg">
  <path d="M10 15.8334H5C4.33696 15.8334 3.70107 15.57 3.23223 15.1012C2.76339 14.6323 2.5 13.9965 2.5 13.3334V6.66675C2.5 6.00371 2.76339 5.36782 3.23223 4.89898C3.70107 4.43014 4.33696 4.16675 5 4.16675H15C15.663 4.16675 16.2989 4.43014 16.7678 4.89898C17.2366 5.36782 17.5 6.00371 17.5 6.66675V10.4167" stroke="#212121" stroke-width="1.25" stroke-linecap="round" stroke-linejoin="round"/>
  <path d="M2.5 8.33325H17.5" stroke="#212121" stroke-width="1.25" stroke-linecap="round" stroke-linejoin="round"/>
  <path d="M13.333 15.8333H18.333" stroke="#212121" stroke-width="1.25" stroke-linecap="round" stroke-linejoin="round"/>
  <path d="M15.833 13.3333L18.333 15.8333L15.833 18.3333" stroke="#212121" stroke-width="1.25" stroke-linecap="round" stroke-linejoin="round"/>
  <path d="M5.83789 12.5H5.84289" stroke="#212121" stroke-width="1.25" stroke-linecap="round" stroke-linejoin="round"/>
  <path d="M9.16699 12.5H10.8337" stroke="#212121" stroke-width="1.25" stroke-linecap="round" stroke-linejoin="round"/>
</svg>
