<svg viewBox="0 0 20 20" fill="none"
  xmlns="http://www.w3.org/2000/svg">
  <path d="M11.608 10.0274C11.4164 10.0274 11.2476 10.1005 11.1017 10.2466C10.9648 10.3836 10.8964 10.5434 10.8964 10.726C10.8964 10.9269 10.9648 11.0959 11.1017 11.2329C11.2476 11.3699 11.4164 11.4384 11.608 11.4384V11.4658H11.6354C11.8179 11.4566 11.973 11.3836 12.1007 11.2466C12.2375 11.1096 12.306 10.9452 12.306 10.7534C12.306 10.5616 12.2375 10.3927 12.1007 10.2466C11.9638 10.1005 11.7996 10.0274 11.608 10.0274ZM3 10.0137C3 8.75342 3.3102 7.58447 3.9306 6.50685C4.56012 5.42922 5.41316 4.57534 6.48974 3.94521C7.56631 3.31507 8.73868 3 10.0068 3C11.275 3 12.4428 3.31507 13.5103 3.94521C14.5868 4.57534 15.4353 5.42922 16.0557 6.50685C16.6852 7.57534 17 8.74429 17 10.0137C17 11.2831 16.6852 12.4521 16.0557 13.5205C15.4262 14.589 14.5777 15.4338 13.5103 16.0548C12.4428 16.6849 11.275 17 10.0068 17C8.73868 17 7.56631 16.6849 6.48974 16.0548C5.42229 15.4338 4.5738 14.589 3.94428 13.5205C3.31476 12.4521 3 11.2831 3 10.0137ZM5.6002 9.30137C5.42685 9.48402 5.34018 9.71689 5.34018 10C5.34018 10.3014 5.4451 10.5434 5.65494 10.726C5.76442 10.8174 5.86022 10.8813 5.94233 10.9178V11.2192C5.94233 11.7397 6.1248 12.2192 6.48974 12.6575C6.85468 13.0868 7.34734 13.4292 7.96774 13.6849C8.59726 13.9406 9.28152 14.0685 10.0205 14.0685C10.7595 14.0685 11.4392 13.9406 12.0596 13.6849C12.6891 13.4292 13.1864 13.0822 13.5513 12.6438C13.9254 12.2055 14.1124 11.7306 14.1124 11.2192V10.9178C14.2766 10.8447 14.4089 10.7306 14.5093 10.5753C14.6096 10.4201 14.6598 10.2466 14.6598 10.0548C14.6598 9.77169 14.5595 9.53425 14.3587 9.34247C14.158 9.14155 13.9163 9.0411 13.6334 9.0411C13.3688 9.0411 13.1362 9.13242 12.9355 9.31507C12.1235 8.75799 11.2248 8.47032 10.2395 8.45205L10.7048 6.26027L12.1828 6.56164C12.2102 6.74429 12.2877 6.89498 12.4154 7.0137C12.5432 7.12329 12.6937 7.17808 12.8671 7.17808C13.0769 7.17808 13.2502 7.11416 13.3871 6.9863C13.5239 6.84932 13.5924 6.68493 13.5924 6.49315C13.5924 6.2831 13.5194 6.11416 13.3734 5.9863C13.2274 5.84932 13.0541 5.78082 12.8534 5.78082C12.6253 5.78082 12.4291 5.89498 12.2649 6.12329L10.5543 5.78082C10.5451 5.78082 10.5314 5.78082 10.5132 5.78082C10.4767 5.78082 10.4311 5.79452 10.3763 5.82192C10.3307 5.84932 10.2988 5.89041 10.2805 5.94521L9.77419 8.38356C9.28152 8.40183 8.80254 8.48402 8.33724 8.63014C7.87195 8.76712 7.4477 8.9726 7.06452 9.24658C6.8638 9.05479 6.62659 8.9589 6.35288 8.9589C6.05181 8.9589 5.80091 9.07306 5.6002 9.30137ZM7.68035 10.7123C7.68035 10.5205 7.74422 10.3562 7.87195 10.2192C8.0088 10.0822 8.17302 10.0137 8.36461 10.0137C8.56533 10.0137 8.72955 10.0822 8.85728 10.2192C8.99413 10.3562 9.06256 10.5205 9.06256 10.7123C9.06256 10.9132 8.99413 11.0822 8.85728 11.2192C8.72955 11.347 8.56533 11.411 8.36461 11.411C8.17302 11.411 8.0088 11.347 7.87195 11.2192C7.74422 11.0822 7.68035 10.9132 7.68035 10.7123ZM8.26882 12.6301C8.77061 12.9954 9.3089 13.1781 9.88368 13.1781C9.92929 13.1781 9.97035 13.1781 10.0068 13.1781C10.0342 13.1781 10.0616 13.1781 10.089 13.1781C10.3627 13.1781 10.6409 13.137 10.9238 13.0548C11.2157 12.9635 11.4894 12.8219 11.7449 12.6301V12.6712C11.7905 12.6256 11.8133 12.5799 11.8133 12.5342C11.8133 12.4886 11.7905 12.4429 11.7449 12.3973C11.7084 12.3516 11.6582 12.3288 11.5943 12.3288C11.5396 12.3288 11.494 12.3516 11.4575 12.3973C11.2568 12.5434 11.0424 12.653 10.8143 12.726C10.5862 12.79 10.3672 12.8219 10.1574 12.8219C10.1118 12.8219 10.0616 12.8219 10.0068 12.8219C9.96123 12.8219 9.91105 12.8219 9.8563 12.8219C9.64646 12.8219 9.42294 12.7854 9.18573 12.7123C8.95764 12.6393 8.74324 12.5251 8.54252 12.3699C8.51515 12.3333 8.4741 12.3151 8.41935 12.3151C8.37374 12.3151 8.33268 12.3333 8.29619 12.3699C8.25057 12.4155 8.22776 12.4658 8.22776 12.5205C8.22776 12.5662 8.24145 12.6027 8.26882 12.6301Z" fill="#212121"/>
</svg>
