<svg viewBox="0 0 20 20" fill="none"
  xmlns="http://www.w3.org/2000/svg">
  <path d="M9.99992 6.66663C12.2066 6.66663 14.1899 7.35496 15.5624 8.44996C16.0319 8.28538 16.5449 8.29426 17.0084 8.475C17.472 8.65575 17.8555 8.99642 18.0897 9.43539C18.3239 9.87437 18.3932 10.3827 18.2852 10.8683C18.1772 11.354 17.8989 11.785 17.5008 12.0833C17.5008 15.075 14.1424 17.5 10.0008 17.5C5.93825 17.5 2.62992 15.1666 2.50075 12.255L1.66742 12.0833C1.26924 11.785 0.990974 11.354 0.882951 10.8683C0.774929 10.3827 0.844283 9.87437 1.07847 9.43539C1.31266 8.99642 1.69621 8.65575 2.15976 8.475C2.6233 8.29426 3.13623 8.28538 3.60575 8.44996C4.97742 7.35579 6.96075 6.66663 9.16742 6.66663H9.99992Z" stroke="#212121" stroke-width="1.25" stroke-linecap="round" stroke-linejoin="round"/>
  <path d="M10 6.66667L10.8333 2.5L15.8333 3.33333" stroke="#212121" stroke-width="1.25" stroke-linecap="round" stroke-linejoin="round"/>
  <path d="M15 3.33333C15 3.55435 15.0878 3.76631 15.2441 3.92259C15.4004 4.07887 15.6123 4.16667 15.8333 4.16667C16.0543 4.16667 16.2663 4.07887 16.4226 3.92259C16.5789 3.76631 16.6667 3.55435 16.6667 3.33333C16.6667 3.11232 16.5789 2.90036 16.4226 2.74408C16.2663 2.5878 16.0543 2.5 15.8333 2.5C15.6123 2.5 15.4004 2.5878 15.2441 2.74408C15.0878 2.90036 15 3.11232 15 3.33333Z" stroke="#212121" stroke-width="1.25" stroke-linecap="round" stroke-linejoin="round"/>
  <path d="M7.49992 11.25C7.73004 11.25 7.91659 11.0634 7.91659 10.8333C7.91659 10.6032 7.73004 10.4166 7.49992 10.4166C7.2698 10.4166 7.08325 10.6032 7.08325 10.8333C7.08325 11.0634 7.2698 11.25 7.49992 11.25Z" fill="#212121" stroke="#212121" stroke-width="1.25" stroke-linecap="round" stroke-linejoin="round"/>
  <path d="M12.4999 11.25C12.73 11.25 12.9166 11.0634 12.9166 10.8333C12.9166 10.6032 12.73 10.4166 12.4999 10.4166C12.2698 10.4166 12.0833 10.6032 12.0833 10.8333C12.0833 11.0634 12.2698 11.25 12.4999 11.25Z" fill="#212121" stroke="#212121" stroke-width="1.25" stroke-linecap="round" stroke-linejoin="round"/>
  <path d="M8.33325 14.1666C8.88909 14.4441 9.44409 14.5833 9.99992 14.5833C10.5558 14.5833 11.1108 14.4441 11.6666 14.1666" stroke="#212121" stroke-width="1.25" stroke-linecap="round" stroke-linejoin="round"/>
</svg>
