<svg viewBox="0 0 20 20" fill="none"
  xmlns="http://www.w3.org/2000/svg">
  <path d="M3.95703 8.97656C6.32682 7.9375 8.82422 6.86198 11.4492 5.75C13.2539 5.01172 14.4434 4.53776 15.0176 4.32812C15.6009 4.10938 16.0065 4 16.2344 4C16.4714 4 16.64 4.05013 16.7402 4.15039C16.8223 4.23242 16.8815 4.34635 16.918 4.49219C16.9271 4.54688 16.9316 4.66536 16.9316 4.84766V4.99805C16.8405 5.96419 16.6309 7.4362 16.3027 9.41406C15.9837 11.3919 15.7012 12.9915 15.4551 14.2129C15.3822 14.6686 15.2682 15.0013 15.1133 15.2109C14.9583 15.4115 14.7852 15.5208 14.5938 15.5391C14.5391 15.5482 14.4889 15.5527 14.4434 15.5527C14.2337 15.5527 14.0195 15.5026 13.8008 15.4023C13.5911 15.293 13.3086 15.1107 12.9531 14.8555L12.543 14.5684C12.1784 14.3314 11.7135 14.0215 11.1484 13.6387C10.7109 13.3379 10.2188 13.0098 9.67188 12.6543C9.24349 12.3626 9.0293 12.0892 9.0293 11.834C9.0293 11.6973 9.08398 11.5605 9.19336 11.4238C9.30273 11.278 9.47135 11.0957 9.69922 10.877L9.95898 10.6309C10.3783 10.2389 11.0618 9.5918 12.0098 8.68945C12.9668 7.78711 13.4635 7.28581 13.5 7.18555V7.08984C13.5 7.03516 13.4772 6.98503 13.4316 6.93945C13.4043 6.91211 13.3678 6.89844 13.3223 6.89844C13.2767 6.89844 13.2266 6.90755 13.1719 6.92578C13.1081 6.94401 11.3079 8.13346 7.77148 10.4941C7.24284 10.8314 6.80534 11 6.45898 11C6.07617 11 5.38802 10.8405 4.39453 10.5215C4.21224 10.4577 4.09375 10.4212 4.03906 10.4121C3.64714 10.2845 3.3737 10.1751 3.21875 10.084C3.07292 9.99284 3 9.87435 3 9.72852C3 9.71029 3 9.69206 3 9.67383C3.02734 9.56445 3.12305 9.45052 3.28711 9.33203C3.45117 9.20443 3.67448 9.08594 3.95703 8.97656Z" fill="#212121"/>
</svg>
