<svg viewBox="0 0 20 20" fill="none"
  xmlns="http://www.w3.org/2000/svg">
  <path d="M11.041 9.89258C11.041 10.3118 11.1413 10.6992 11.3418 11.0547C11.5514 11.4102 11.8294 11.6973 12.1758 11.916C12.5221 12.1257 12.9004 12.2305 13.3105 12.2305H15.4434C15.4434 12.7044 15.3522 13.1556 15.1699 13.584C14.9967 14.0124 14.7552 14.3906 14.4453 14.7188C14.4453 14.7279 14.4362 14.737 14.418 14.7461L14.4043 14.7598C14.3861 14.7689 14.3633 14.7871 14.3359 14.8145C14.3086 14.8327 14.2904 14.8555 14.2812 14.8828L14.1582 15.0059C14.1309 15.015 14.1035 15.0332 14.0762 15.0605C14.0579 15.0788 14.0397 15.0924 14.0215 15.1016L13.8848 15.1973C13.8574 15.2155 13.8301 15.2337 13.8027 15.252C13.7754 15.2611 13.7526 15.2747 13.7344 15.293C13.6706 15.3385 13.6296 15.3704 13.6113 15.3887L13.4336 15.4434C13.3516 15.4798 13.3014 15.5026 13.2832 15.5117C13.2559 15.5208 13.224 15.5299 13.1875 15.5391C13.1602 15.5482 13.1237 15.5573 13.0781 15.5664C13.0508 15.5938 13.0098 15.6165 12.9551 15.6348L12.5996 15.7031L12.2305 15.7441C12.1576 15.7533 12.0391 15.7578 11.875 15.7578H7.66406C6.9987 15.7578 6.38346 15.5938 5.81836 15.2656C5.26237 14.9284 4.82031 14.4818 4.49219 13.9258C4.16406 13.3607 4 12.7454 4 12.0801V7.67773C4 7.01237 4.16406 6.40169 4.49219 5.8457C4.82031 5.2806 5.26237 4.83398 5.81836 4.50586C6.38346 4.16862 6.9987 4 7.66406 4H11.8887C12.5358 4 13.1283 4.15951 13.666 4.47852C14.2129 4.79753 14.6458 5.23047 14.9648 5.77734C15.2839 6.32422 15.4434 6.92122 15.4434 7.56836H13.3516C12.9323 7.56836 12.5449 7.67318 12.1895 7.88281C11.834 8.09245 11.5514 8.375 11.3418 8.73047C11.1413 9.08594 11.041 9.47331 11.041 9.89258ZM11.4922 9.45508C11.5833 9.02669 11.8112 8.67578 12.1758 8.40234C12.5495 8.11979 12.9642 7.97852 13.4199 7.97852H15.2109C15.6302 7.97852 15.9811 8.10156 16.2637 8.34766C16.5462 8.58464 16.6875 8.8763 16.6875 9.22266V10.5898C16.6875 10.9271 16.5417 11.2188 16.25 11.4648C15.9583 11.7018 15.612 11.8203 15.2109 11.8203H13.3516C13.0052 11.8203 12.6816 11.7337 12.3809 11.5605C12.0892 11.3874 11.8568 11.1549 11.6836 10.8633C11.5195 10.5625 11.4375 10.2389 11.4375 9.89258C11.4375 9.80143 11.4557 9.6556 11.4922 9.45508ZM12.75 9.91992C12.75 10.1387 12.8275 10.3301 12.9824 10.4941C13.1465 10.6491 13.3379 10.7266 13.5566 10.7266C13.7845 10.7266 13.9759 10.6445 14.1309 10.4805C14.2858 10.3073 14.3633 10.1159 14.3633 9.90625C14.3633 9.67839 14.2812 9.48698 14.1172 9.33203C13.9622 9.16797 13.7708 9.08594 13.543 9.08594C13.3242 9.08594 13.1374 9.16797 12.9824 9.33203C12.8275 9.49609 12.75 9.69206 12.75 9.91992Z" fill="#212121"/>
</svg>
