<svg viewBox="0 0 20 20" fill="none"
  xmlns="http://www.w3.org/2000/svg">
  <path d="M14.1663 6.66659V4.16659C14.1663 3.94557 14.0785 3.73361 13.9223 3.57733C13.766 3.42105 13.554 3.33325 13.333 3.33325H4.99967C4.55765 3.33325 4.13372 3.50885 3.82116 3.82141C3.5086 4.13397 3.33301 4.55789 3.33301 4.99992M3.33301 4.99992C3.33301 5.44195 3.5086 5.86587 3.82116 6.17843C4.13372 6.49099 4.55765 6.66659 4.99967 6.66659H14.9997C15.2207 6.66659 15.4327 6.75438 15.5889 6.91066C15.7452 7.06694 15.833 7.27891 15.833 7.49992V9.99992M3.33301 4.99992V14.9999C3.33301 15.4419 3.5086 15.8659 3.82116 16.1784C4.13372 16.491 4.55765 16.6666 4.99967 16.6666H14.9997C15.2207 16.6666 15.4327 16.5788 15.5889 16.4225C15.7452 16.2662 15.833 16.0543 15.833 15.8333V13.3333" stroke="#212121" stroke-width="1.25" stroke-linecap="round" stroke-linejoin="round"/>
  <path d="M16.667 10V13.3333H13.3337C12.8916 13.3333 12.4677 13.1577 12.1551 12.8452C11.8426 12.5326 11.667 12.1087 11.667 11.6667C11.667 11.2246 11.8426 10.8007 12.1551 10.4882C12.4677 10.1756 12.8916 10 13.3337 10H16.667Z" stroke="#212121" stroke-width="1.25" stroke-linecap="round" stroke-linejoin="round"/>
</svg>
