<svg viewBox="0 0 20 20" fill="none"
  xmlns="http://www.w3.org/2000/svg">
  <path d="M15.5645 6.83008C15.5736 6.90299 15.5781 7.02148 15.5781 7.18555C15.5781 8.49805 15.25 9.78776 14.5938 11.0547C13.9466 12.3125 13.0033 13.347 11.7637 14.1582C10.5241 14.9603 9.06576 15.3613 7.38867 15.3613C6.60482 15.3613 5.83919 15.252 5.0918 15.0332C4.35352 14.8145 3.65625 14.4954 3 14.0762C3.21875 14.1035 3.44206 14.1172 3.66992 14.1172C4.32617 14.1172 4.95964 14.0124 5.57031 13.8027C6.18099 13.5931 6.73698 13.2832 7.23828 12.873C6.63672 12.873 6.08984 12.6908 5.59766 12.3262C5.10547 11.9525 4.75456 11.474 4.54492 10.8906C4.7819 10.9271 4.96419 10.9453 5.0918 10.9453C5.35612 10.9453 5.61133 10.9043 5.85742 10.8223C5.41992 10.7402 5.02344 10.5671 4.66797 10.3027C4.32161 10.0293 4.04818 9.69661 3.84766 9.30469C3.65625 8.90365 3.56055 8.47982 3.56055 8.0332V7.99219C3.96159 8.22917 4.39453 8.34766 4.85938 8.34766C4.44922 8.08333 4.13021 7.73698 3.90234 7.30859C3.68359 6.88021 3.57422 6.42904 3.57422 5.95508C3.57422 5.45378 3.70638 4.97526 3.9707 4.51953C4.69987 5.41276 5.57943 6.11914 6.60938 6.63867C7.63932 7.1582 8.73763 7.44987 9.9043 7.51367C9.84961 7.29492 9.82227 7.07161 9.82227 6.84375C9.82227 6.46094 9.89974 6.0918 10.0547 5.73633C10.2188 5.37174 10.4421 5.05273 10.7246 4.7793C10.9889 4.52409 11.2897 4.33268 11.627 4.20508C11.9733 4.06836 12.3288 4 12.6934 4C13.0762 4 13.4499 4.07747 13.8145 4.23242C14.179 4.38737 14.5026 4.61068 14.7852 4.90234C15.4779 4.76562 16.084 4.52865 16.6035 4.19141C16.5033 4.52865 16.3438 4.83398 16.125 5.10742C15.9062 5.38086 15.651 5.60417 15.3594 5.77734C15.9518 5.72266 16.4987 5.57227 17 5.32617C16.6081 5.91862 16.1296 6.41992 15.5645 6.83008Z" fill="#212121"/>
</svg>
