<svg viewBox="0 0 20 20" fill="none"
  xmlns="http://www.w3.org/2000/svg">
  <path d="M1.66675 6.66671C1.66675 5.78265 2.01794 4.93481 2.64306 4.30968C3.26818 3.68456 4.11603 3.33337 5.00008 3.33337H15.0001C15.8841 3.33337 16.732 3.68456 17.3571 4.30968C17.9822 4.93481 18.3334 5.78265 18.3334 6.66671V13.3334C18.3334 14.2174 17.9822 15.0653 17.3571 15.6904C16.732 16.3155 15.8841 16.6667 15.0001 16.6667H5.00008C4.11603 16.6667 3.26818 16.3155 2.64306 15.6904C2.01794 15.0653 1.66675 14.2174 1.66675 13.3334V6.66671Z" stroke="#212121" stroke-width="1.25" stroke-linecap="round" stroke-linejoin="round"/>
  <path d="M8.33325 7.5L12.4999 10L8.33325 12.5V7.5Z" stroke="#212121" stroke-width="1.25" stroke-linecap="round" stroke-linejoin="round"/>
</svg>
