<svg viewBox="0 0 20 20" fill="none"
  xmlns="http://www.w3.org/2000/svg">
  <path d="M8.72852 8.17188V12L11.9141 10.0859L8.72852 8.17188ZM16.3848 13.9961C16.166 14.3971 15.9062 14.6751 15.6055 14.8301C15.3138 14.9759 14.9036 15.0716 14.375 15.1172C14.1927 15.1263 13.9421 15.1354 13.623 15.1445C13.3132 15.1536 12.9622 15.1628 12.5703 15.1719C12.1875 15.1719 11.7728 15.1719 11.3262 15.1719C10.8887 15.181 10.4466 15.1855 10 15.1855C9.55339 15.1855 9.11133 15.181 8.67383 15.1719C8.22721 15.1719 7.80794 15.1719 7.41602 15.1719C7.0332 15.1628 6.68229 15.1536 6.36328 15.1445C6.05339 15.1354 5.80273 15.1263 5.61133 15.1172C5.0918 15.0716 4.68164 14.9759 4.38086 14.8301C4.08919 14.6751 3.83398 14.3971 3.61523 13.9961C3.39648 13.6133 3.23698 13.112 3.13672 12.4922C3.04557 11.8633 3 11.0658 3 10.0996C3 9.12435 3.04557 8.32682 3.13672 7.70703C3.23698 7.07812 3.39648 6.56771 3.61523 6.17578C3.83398 5.77474 4.08919 5.49674 4.38086 5.3418C4.68164 5.18685 5.0918 5.0957 5.61133 5.06836C5.79362 5.05924 6.0306 5.05013 6.32227 5.04102C6.62305 5.0319 6.96484 5.02734 7.34766 5.02734C7.73958 5.01823 8.15885 5.00911 8.60547 5H11.3945C11.8411 5.00911 12.2559 5.01823 12.6387 5.02734C13.0306 5.02734 13.377 5.0319 13.6777 5.04102C13.9694 5.05013 14.2018 5.05924 14.375 5.06836C14.9036 5.0957 15.3138 5.18685 15.6055 5.3418C15.8971 5.49674 16.1569 5.77474 16.3848 6.17578C16.6035 6.56771 16.7585 7.07357 16.8496 7.69336C16.9499 8.31315 17 9.11068 17 10.0859C17 11.0703 16.9499 11.8724 16.8496 12.4922C16.7585 13.112 16.6035 13.6133 16.3848 13.9961Z" fill="#212121"/>
</svg>
